<?xml version="1.0" encoding="UTF-8" standalone="no"?>
<svg width="247px" height="185px" viewBox="0 0 247 185" version="1.1" xmlns="http://www.w3.org/2000/svg" xmlns:xlink="http://www.w3.org/1999/xlink">
    <!-- Generator: Sketch 47.1 (45422) - http://www.bohemiancoding.com/sketch -->
    <title>Quiz Review</title>
    <desc>Created with Sketch.</desc>
    <defs>
        <rect id="path-1" x="9.9475983e-14" y="13.2487934" width="98.5604412" height="130.775231" rx="6"></rect>
        <rect id="path-2" x="5.71193346" y="18.6575516" width="87.0907056" height="106.78301" rx="2"></rect>
        <linearGradient x1="-10.6179253%" y1="-215.965656%" x2="116.678674%" y2="644.948165%" id="linearGradient-3">
            <stop stop-color="#005DE8" offset="0%"></stop>
            <stop stop-color="#E62899" offset="100%"></stop>
        </linearGradient>
        <path d="M40.3385511,7.84003509 L28.0414408,7.84003509 C24.7277323,7.84003509 22.0414408,10.5263266 22.0414408,13.8400351 L22.0414408,13.8400351 L22.0414408,24.6401103 L75.0403359,24.6401103 L75.0403359,13.8400351 C75.0403359,10.5263266 72.3540444,7.84003509 69.0403359,7.84003509 L57.101885,7.84003509 C56.8137155,3.46191768 53.1712539,-1.42108547e-13 48.7202181,-1.42108547e-13 C44.2691822,-1.42108547e-13 40.6267206,3.46191768 40.3385511,7.84003509 Z" id="path-4"></path>
        <path d="M-3.83693077e-13,8.65401322 L9.0719485,8.65401322 L9.0719485,73.7380393 L5.93081598,85.9835841 L5.93081598,85.9835841 C5.7332118,86.7539339 4.94853004,87.218236 4.17818023,87.0206318 C3.66917065,86.8900646 3.27169973,86.4925937 3.14113253,85.9835841 L-3.83693077e-13,73.7380393 L-3.83693077e-13,8.65401322 Z" id="path-5"></path>
        <rect id="path-6" x="-3.83693077e-13" y="8.65401322" width="9.0719485" height="64.9050992"></rect>
        <linearGradient x1="-33.7994083%" y1="0%" x2="127.307156%" y2="178.798923%" id="linearGradient-7">
            <stop stop-color="#005DE8" offset="0%"></stop>
            <stop stop-color="#E62899" offset="100%"></stop>
        </linearGradient>
        <path d="M2.88,9.14823772e-14 L6.1919485,9.14823772e-14 L6.1919485,9.14823772e-14 C7.78252858,9.11901924e-14 9.0719485,1.28941992 9.0719485,2.88 L9.0719485,8.65401322 L-2.84217094e-13,8.65401322 L-2.84217094e-13,2.88 L-2.84217094e-13,2.88 C-2.84411884e-13,1.28941992 1.28941992,9.13304728e-14 2.88,9.1038288e-14 Z" id="path-8"></path>
        <rect id="path-9" x="46.9862656" y="-6.39488462e-14" width="18.7945062" height="36.5882789" rx="5.4"></rect>
    </defs>
    <g id="Illustrations-9-5-17" stroke="none" stroke-width="1" fill="none" fill-rule="evenodd">
        <g id="Loading-Illustrations-Copy-4" transform="translate(-744.000000, -524.000000)">
            <g id="Quiz-Review" transform="translate(874.000000, 615.000000) rotate(-14.000000) translate(-874.000000, -615.000000) translate(735.000000, 529.000000)">
                <g id="Group-14" transform="translate(119.941437, 2.720835)">
                    <g id="Rectangle-31">
                        <use fill="#709CEB" fill-rule="evenodd" xlink:href="#path-1"></use>
                        <rect stroke="#201163" stroke-width="2" x="1" y="14.2487934" width="96.5604412" height="128.775231" rx="6"></rect>
                    </g>
                    <g id="Rectangle-31-Copy">
                        <use fill="#FFFFFF" fill-rule="evenodd" xlink:href="#path-2"></use>
                        <rect stroke="#201163" stroke-width="2" x="6.71193346" y="19.6575516" width="85.0907056" height="104.78301" rx="2"></rect>
                    </g>
                    <g id="Group-4" transform="translate(38.080170, 35.840160)" fill="url(#linearGradient-3)">
                        <rect id="Rectangle-29" x="0.290777622" y="0.846585402" width="41.7309631" height="2.24001003" rx="1.12000501"></rect>
                        <rect id="Rectangle-29-Copy-4" x="0.290777622" y="8.05826309" width="29.0302352" height="2.24001003" rx="1.12000501"></rect>
                        <rect id="Rectangle-29-Copy-5" x="0.290777622" y="27.8903767" width="29.0302352" height="2.24001003" rx="1.12000501"></rect>
                        <rect id="Rectangle-29-Copy" x="0.290777622" y="20.678699" width="41.7309631" height="2.24001003" rx="1.12000501"></rect>
                        <rect id="Rectangle-29-Copy-2" x="0.290777622" y="40.5108127" width="41.7309631" height="2.24001003" rx="1.12000501"></rect>
                        <rect id="Rectangle-29-Copy-6" x="0.290777622" y="47.7224903" width="41.7309631" height="2.24001003" rx="1.12000501"></rect>
                        <rect id="Rectangle-29-Copy-7" x="0.290777622" y="67.554604" width="41.7309631" height="2.24001003" rx="1.12000501"></rect>
                        <rect id="Rectangle-29-Copy-3" x="0.290777622" y="60.3429263" width="41.7309631" height="2.24001003" rx="1.12000501"></rect>
                    </g>
                    <rect id="Rectangle-30" stroke="#240F6E" stroke-width="2" x="15.783882" y="35.8838264" width="12.5151176" height="12.4233554" rx="1.2"></rect>
                    <rect id="Rectangle-30-Copy" stroke="#240F6E" stroke-width="2" x="15.783882" y="55.71594" width="12.5151176" height="12.4233554" rx="1.2"></rect>
                    <rect id="Rectangle-30-Copy-2" stroke="#240F6E" stroke-width="2" x="15.783882" y="75.5480537" width="12.5151176" height="12.4233554" rx="1.2"></rect>
                    <rect id="Rectangle-30-Copy-3" stroke="#240F6E" stroke-width="2" x="15.783882" y="95.3801673" width="12.5151176" height="12.4233554" rx="1.2"></rect>
                    <path d="M18.3164363,34.8811407 L20.5564463,34.8811407 L20.5564463,40.4811658 L18.3164363,40.4811658 L18.3164363,34.8811407 Z M31.7564964,40.4811658 L31.7564964,42.7211758 L18.3164363,42.7211758 L18.3164363,40.4811658 L31.7564964,40.4811658 Z" id="Combined-Shape" fill="#E62899" transform="translate(25.036466, 38.801158) rotate(-45.000000) translate(-25.036466, -38.801158) "></path>
                    <path d="M19.1439031,54.7104227 L21.3839132,54.7104227 L21.3839132,60.3104478 L19.1439031,60.3104478 L19.1439031,54.7104227 Z M32.5839633,60.3104478 L32.5839633,62.5504578 L19.1439031,62.5504578 L19.1439031,60.3104478 L32.5839633,60.3104478 Z" id="Combined-Shape-Copy" fill="#E62899" transform="translate(25.863933, 58.630440) rotate(-45.000000) translate(-25.863933, -58.630440) "></path>
                    <path d="M18.8846339,74.268751 L21.124644,74.268751 L21.124644,79.8687761 L18.8846339,79.8687761 L18.8846339,74.268751 Z M32.3246941,79.8687761 L32.3246941,82.1087861 L18.8846339,82.1087861 L18.8846339,79.8687761 L32.3246941,79.8687761 Z" id="Combined-Shape-Copy-2" fill="#E62899" transform="translate(25.604664, 78.188769) rotate(-45.000000) translate(-25.604664, -78.188769) "></path>
                    <path d="M18.6253647,93.8270793 L20.8653748,93.8270793 L20.8653748,99.4271043 L18.6253647,99.4271043 L18.6253647,93.8270793 Z M32.0654249,99.4271043 L32.0654249,101.667114 L18.6253647,101.667114 L18.6253647,99.4271043 L32.0654249,99.4271043 Z" id="Combined-Shape-Copy-3" fill="#E62899" transform="translate(25.345395, 97.747097) rotate(-45.000000) translate(-25.345395, -97.747097) "></path>
                    <g id="Combined-Shape">
                        <use fill="#E62899" fill-rule="evenodd" xlink:href="#path-4"></use>
                        <path stroke="#201163" stroke-width="2" d="M23.0414408,23.6401103 L74.0403359,23.6401103 L74.0403359,13.8400351 C74.0403359,11.0786113 71.8017596,8.84003509 69.0403359,8.84003509 L56.1655416,8.84003509 L56.1040442,7.90571339 C55.8490775,4.03204162 52.6232935,1 48.7202181,1 C44.8171426,1 41.5913586,4.03204162 41.336392,7.90571339 L41.2748945,8.84003509 L28.0414408,8.84003509 C25.280017,8.84003509 23.0414408,11.0786113 23.0414408,13.8400351 L23.0414408,23.6401103 Z"></path>
                    </g>
                    <circle id="Oval-4" stroke="#240F6E" fill="#FFFFFF" cx="48.7202181" cy="9.52004261" r="2.80001253"></circle>
                </g>
                <g id="Group-13" transform="translate(232.800725, 49.750763) rotate(-330.000000) translate(-232.800725, -49.750763) translate(205.300725, 8.750763)">
                    <g id="Group-11" transform="translate(27.541653, 41.016426) rotate(-329.000000) translate(-27.541653, -41.016426) translate(22.541653, -2.983574)">
                        <g id="Group" transform="translate(-0.000000, 0.000000)">
                            <g id="Rectangle-44">
                                <use fill="#FFFFFF" fill-rule="evenodd" xlink:href="#path-5"></use>
                                <path stroke="#201163" stroke-width="2" d="M1,9.65401322 L1,73.6118263 L4.10977261,85.735116 C4.14966815,85.8906467 4.27111759,86.0120962 4.4266483,86.0519917 C4.66203297,86.1123708 4.90179683,85.9705007 4.96217589,85.735116 L8.0719485,73.6118263 L8.0719485,9.65401322 L1,9.65401322 Z"></path>
                            </g>
                            <g id="Rectangle-34">
                                <use fill="#FFFFFF" fill-rule="evenodd" xlink:href="#path-6"></use>
                                <rect stroke="#201163" stroke-width="2" x="1" y="9.65401322" width="7.0719485" height="62.9050992"></rect>
                            </g>
                            <g id="Rectangle-33">
                                <use fill="url(#linearGradient-7)" fill-rule="evenodd" xlink:href="#path-8"></use>
                                <path stroke="#240F6E" stroke-width="1.44" d="M0.72,7.93401322 L8.3519485,7.93401322 L8.3519485,2.88 C8.3519485,1.68706494 7.38488356,0.72 6.1919485,0.72 L2.88,0.72 C1.68706494,0.72 0.72,1.68706494 0.72,2.88 L0.72,7.93401322 Z"></path>
                            </g>
                        </g>
                    </g>
                </g>
                <g id="Group-12" transform="translate(65.958248, 110.576395) rotate(37.000000) translate(-65.958248, -110.576395) translate(8.458248, 77.576395)">
                    <path d="M9.99544278,48.1747345 C13.5937639,25.1839174 32.9925831,7.62213983 56.3835187,7.62213983 C79.7744543,7.62213983 99.1732735,25.1839174 102.771595,48.1747345 L109.246488,48.1747345 C112.228826,48.1747345 114.646488,50.5923969 114.646488,53.5747345 L114.646488,60.154418 C114.646488,63.1367556 112.228826,65.554418 109.246488,65.554418 L5.4,65.554418 C2.41766235,65.554418 -1.41112581e-15,63.1367556 -1.77635684e-15,60.154418 L0,53.5747345 L8.8817842e-16,53.5747345 C5.22947394e-16,50.5923969 2.41766235,48.1747345 5.4,48.1747345 L9.99544278,48.1747345 Z" id="Combined-Shape" stroke="#201163" stroke-width="2" fill="#FFFFFF"></path>
                    <path d="M28.1917594,16.7771244 C29.9865933,15.5283676 31.8699386,14.4037803 33.8301112,13.4153676 L33.8301112,40.2514021 C33.8301112,40.8478696 33.3465787,41.3314021 32.7501112,41.3314021 L29.2717594,41.3314021 C28.6752918,41.3314021 28.1917594,40.8478696 28.1917594,40.2514021 L28.1917594,16.7771244 Z" id="Combined-Shape" stroke="#201163" stroke-width="2" fill="#4086EE"></path>
                    <path d="M78.9369262,16.7771244 C80.7317601,15.5283676 82.6151054,14.4037803 84.5752781,13.4153676 L84.5752781,40.2514021 C84.5752781,40.8478696 84.0917456,41.3314021 83.4952781,41.3314021 L80.0169262,41.3314021 C79.4204587,41.3314021 78.9369262,40.8478696 78.9369262,40.2514021 L78.9369262,16.7771244 Z" id="Combined-Shape-Copy-8" stroke="#201163" stroke-width="2" fill="#4086EE" transform="translate(81.756102, 27.373385) scale(-1, 1) translate(-81.756102, -27.373385) "></path>
                    <g id="Rectangle-37">
                        <use fill="#709CEB" fill-rule="evenodd" xlink:href="#path-9"></use>
                        <rect stroke="#201163" stroke-width="2" x="47.9862656" y="1" width="16.7945062" height="34.5882789" rx="5.4"></rect>
                    </g>
                </g>
            </g>
        </g>
    </g>
</svg>