<?xml version="1.0" encoding="UTF-8" standalone="no"?>
<svg width="119px" height="139px" viewBox="0 0 119 139" version="1.1" xmlns="http://www.w3.org/2000/svg" xmlns:xlink="http://www.w3.org/1999/xlink">
    <!-- Generator: Sketch 47.1 (45422) - http://www.bohemiancoding.com/sketch -->
    <title>Group 3</title>
    <desc>Created with Sketch.</desc>
    <defs>
        <rect id="path-1" x="0" y="0" width="34.5449463" height="43.9775095" rx="2"></rect>
        <rect id="path-2" x="0" y="0" width="62.2702703" height="13.8897638" rx="2"></rect>
        <rect id="path-3" x="0" y="0" width="62.2702703" height="13.8897638" rx="2"></rect>
    </defs>
    <g id="Louise-iterations" stroke="none" stroke-width="1" fill="none" fill-rule="evenodd">
        <g id="Quizzes" transform="translate(-95.000000, -569.000000)">
            <g id="Group-3" transform="translate(94.000000, 561.000000)">
                <g id="Seeds---1">
                    <g id="Ground" transform="translate(28.828829, 135.425197)" stroke="#20156A" stroke-width="2" stroke-linecap="round">
                        <path d="M0.576576577,1.15748031 L72.1557197,1.15748031" id="Line-4"></path>
                        <path d="M13.8378378,10.4173228 L41.5135135,10.4173228" id="Line-4-Copy"></path>
                        <path d="M48.4324324,10.4173228 L65.7297297,10.4173228" id="Line-4-Copy-2"></path>
                    </g>
                    <g id="Clouds" transform="translate(29.981982, 21.992126)" fill="#EFEFEF">
                        <path d="M62.7576824,56.5760294 C62.4436735,55.8202209 62.2702703,54.9908391 62.2702703,54.1208048 C62.2702703,50.5952488 65.1176136,47.7372209 68.6299896,47.7372209 C68.8500079,47.7372209 69.0674166,47.7484354 69.2816794,47.7703261 C69.9322009,44.9383035 72.459894,42.8267717 75.4789182,42.8267717 C78.5576918,42.8267717 81.1254941,45.022709 81.7125638,47.9393073 C82.2218724,47.8073921 82.7559047,47.7372209 83.3062651,47.7372209 C86.8186412,47.7372209 89.6659845,50.5952488 89.6659845,54.1208048 C89.6659845,54.9908391 89.4925812,55.8202209 89.1785723,56.5760294 L62.7576824,56.5760294 Z" id="Combined-Shape-Copy-3"></path>
                        <path d="M0.173040738,11.0319285 C0.0602172256,10.5925423 0,10.1301906 0,9.65293741 C0,6.75887363 2.21431405,4.41277139 4.94580886,4.41277139 C5.15067838,4.41277139 5.35263854,4.42596917 5.5509733,4.45160605 C5.90993006,1.93166376 7.9626306,0 10.441152,0 C12.9528007,0 15.0271695,1.98364496 15.3448131,4.55296059 C15.7111603,4.46128331 16.0932479,4.41277139 16.4860295,4.41277139 C19.2175243,4.41277139 21.4318384,6.75887363 21.4318384,9.65293741 C21.4318384,10.1301906 21.3716212,10.5925423 21.2587976,11.0319285 L0.173040738,11.0319285 Z" id="Combined-Shape-Copy-4"></path>
                    </g>
                    <g id="Seed-packet" transform="translate(28.304015, 47.043736) rotate(133.000000) translate(-28.304015, -47.043736) translate(11.006718, 24.472870)">
                        <g id="Rectangle-34">
                            <use fill="#FFFFFF" fill-rule="evenodd" xlink:href="#path-1"></use>
                            <rect stroke="#20156A" stroke-width="2" x="1" y="1" width="32.5449463" height="41.9775095" rx="2"></rect>
                        </g>
                        <path d="M11.2879539,10.6415715 C11.2879539,11.012948 11.145288,11.3055432 10.8599519,11.5193661 C10.5746158,11.7331889 10.1776542,11.8400987 9.6690551,11.8400987 C9.2005032,11.8400987 8.78602119,11.7575718 8.42559665,11.5925156 L8.42559665,10.7822437 C8.72194572,10.9060358 8.97273736,10.9932517 9.17797912,11.043894 C9.38322087,11.0945362 9.57093917,11.119857 9.74113965,11.119857 C9.94538022,11.119857 10.1020624,11.0832826 10.211191,11.0101327 C10.3203195,10.9369828 10.374883,10.8281973 10.374883,10.6837731 C10.374883,10.6031207 10.350855,10.5313786 10.3027984,10.4685447 C10.2547418,10.4057108 10.1841597,10.3452223 10.0910501,10.2870775 C9.99794038,10.2289327 9.80821975,10.13609 9.52188248,10.0085465 C9.25356643,9.89038127 9.05233242,9.77690682 8.91817439,9.66811977 C8.78401637,9.55933271 8.67689179,9.43272899 8.59679745,9.2883048 C8.51670311,9.1438806 8.47665654,8.97507564 8.47665654,8.78188483 C8.47665654,8.41801089 8.60830964,8.13198026 8.87161979,7.92378434 C9.13492994,7.71558843 9.49885315,7.61149203 9.96340034,7.61149203 C10.1916692,7.61149203 10.4094224,7.63681278 10.6166666,7.68745503 C10.8239107,7.73809728 11.0406627,7.80937048 11.2669292,7.90127679 L10.966577,8.57931685 C10.732301,8.48928618 10.5385757,8.42645322 10.3853953,8.39081608 C10.2322149,8.35517895 10.0815396,8.33736064 9.93336511,8.33736064 C9.75715755,8.33736064 9.62200038,8.37581066 9.52788953,8.45271186 C9.43377867,8.52961305 9.38672395,8.62995823 9.38672395,8.75375039 C9.38672395,8.83065158 9.40574607,8.89770467 9.44379089,8.95491165 C9.4818357,9.01211864 9.54240614,9.06744916 9.62550402,9.12090486 C9.7086019,9.17436057 9.90533068,9.27048562 10.2156963,9.4092829 C10.6261798,9.59309551 10.9075069,9.77737426 11.0596862,9.96212469 C11.2118654,10.1468751 11.2879539,10.3733551 11.2879539,10.6415715 Z M14.6128537,11.7838298 L12.0838875,11.7838298 L12.0838875,7.67057436 L14.6128537,7.67057436 L14.6128537,8.3851892 L13.0149795,8.3851892 L13.0149795,9.2883048 L14.5017233,9.2883048 L14.5017233,10.0029196 L13.0149795,10.0029196 L13.0149795,11.0635881 L14.6128537,11.0635881 L14.6128537,11.7838298 Z M18.0578943,11.7838298 L15.5289281,11.7838298 L15.5289281,7.67057436 L18.0578943,7.67057436 L18.0578943,8.3851892 L16.4600202,8.3851892 L16.4600202,9.2883048 L17.946764,9.2883048 L17.946764,10.0029196 L16.4600202,10.0029196 L16.4600202,11.0635881 L18.0578943,11.0635881 L18.0578943,11.7838298 Z M22.617242,9.68781388 C22.617242,10.3649195 22.4115027,10.8835259 22.0000181,11.2436485 C21.5885334,11.6037712 20.9943424,11.7838298 20.2174273,11.7838298 L18.9739688,11.7838298 L18.9739688,7.67057436 L20.3525858,7.67057436 C21.0694302,7.67057436 21.6260775,7.84781958 22.0225445,8.20231532 C22.4190115,8.55681107 22.617242,9.0519723 22.617242,9.68781388 Z M21.6501076,9.71032143 C21.6501076,8.82689552 21.2336233,8.3851892 20.4006422,8.3851892 L19.9050609,8.3851892 L19.9050609,11.0635881 L20.3045294,11.0635881 C21.2015861,11.0635881 21.6501076,10.6125037 21.6501076,9.71032143 Z M26.1193496,10.6415715 C26.1193496,11.012948 25.9766837,11.3055432 25.6913476,11.5193661 C25.4060115,11.7331889 25.0090499,11.8400987 24.5004508,11.8400987 C24.0318989,11.8400987 23.6174169,11.7575718 23.2569924,11.5925156 L23.2569924,10.7822437 C23.5533414,10.9060358 23.8041331,10.9932517 24.0093748,11.043894 C24.2146166,11.0945362 24.4023349,11.119857 24.5725354,11.119857 C24.7767759,11.119857 24.9334581,11.0832826 25.0425867,11.0101327 C25.1517152,10.9369828 25.2062787,10.8281973 25.2062787,10.6837731 C25.2062787,10.6031207 25.1822507,10.5313786 25.1341941,10.4685447 C25.0861375,10.4057108 25.0155554,10.3452223 24.9224458,10.2870775 C24.8293361,10.2289327 24.6396155,10.13609 24.3532782,10.0085465 C24.0849621,9.89038127 23.8837281,9.77690682 23.7495701,9.66811977 C23.6154121,9.55933271 23.5082875,9.43272899 23.4281932,9.2883048 C23.3480988,9.1438806 23.3080522,8.97507564 23.3080522,8.78188483 C23.3080522,8.41801089 23.4397053,8.13198026 23.7030155,7.92378434 C23.9663257,7.71558843 24.3302489,7.61149203 24.794796,7.61149203 C25.0230649,7.61149203 25.2408181,7.63681278 25.4480623,7.68745503 C25.6553064,7.73809728 25.8720584,7.80937048 26.098325,7.90127679 L25.7979727,8.57931685 C25.5636967,8.48928618 25.3699714,8.42645322 25.216791,8.39081608 C25.0636106,8.35517895 24.9129354,8.33736064 24.7647608,8.33736064 C24.5885533,8.33736064 24.4533961,8.37581066 24.3592852,8.45271186 C24.2651744,8.52961305 24.2181197,8.62995823 24.2181197,8.75375039 C24.2181197,8.83065158 24.2371418,8.89770467 24.2751866,8.95491165 C24.3132314,9.01211864 24.3738018,9.06744916 24.4568997,9.12090486 C24.5399976,9.17436057 24.7367264,9.27048562 25.047092,9.4092829 C25.4575755,9.59309551 25.7389026,9.77737426 25.8910819,9.96212469 C26.0432611,10.1468751 26.1193496,10.3733551 26.1193496,10.6415715 Z" id="SEEDS" fill="#20156A"></path>
                        <g id="Flower" transform="translate(17.372472, 26.771836) rotate(21.000000) translate(-17.372472, -26.771836) translate(7.570670, 11.724592)">
                            <g id="plant" transform="translate(2.746120, 10.222173)" stroke="#20156A">
                                <path d="M5.49212126,18.6333611 C4.9351404,17.093383 5.13406214,15.4986359 6.08888646,13.8491197 C6.81784258,12.5898044 6.75503061,8.35041075 6.08888646,5.53964788 C5.69104299,3.86096671 5.80247558,2.01441741 6.42318422,0" id="stem" stroke-linecap="round"></path>
                                <path d="M10.3462668,12.0206292 C12.5129254,12.0206292 14.2693493,9.50260744 14.2693493,9.50260744 C14.2693493,9.50260744 12.5129254,6.98458567 10.3462668,6.98458567 C8.1796081,6.98458567 6.42318422,9.50260744 6.42318422,9.50260744 C6.42318422,9.50260744 8.1796081,12.0206292 10.3462668,12.0206292 Z" id="leaf-outline" stroke-linejoin="round" transform="translate(10.346267, 9.502607) rotate(-36.000000) translate(-10.346267, -9.502607) "></path>
                                <path d="M3.25869072,13.5756048 C4.77694503,13.5756048 6.00773333,11.811138 6.00773333,11.811138 C6.00773333,11.811138 4.77694503,10.0466711 3.25869072,10.0466711 C1.74043641,10.0466711 0.509648107,11.811138 0.509648107,11.811138 C0.509648107,11.811138 1.74043641,13.5756048 3.25869072,13.5756048 Z" id="leaf-2-outline" stroke-linejoin="round" transform="translate(3.258691, 11.811138) scale(1, -1) rotate(-15.000000) translate(-3.258691, -11.811138) "></path>
                            </g>
                            <g id="flower" transform="translate(9.866052, 10.713698) rotate(-22.000000) translate(-9.866052, -10.713698) translate(2.947133, 3.190076)">
                                <g id="Group-Copy-2" transform="translate(1.790653, 0.417148)" fill="#E2238E">
                                    <path d="M3.97651889,9.15439191 C3.95141794,9.16716656 3.92574844,9.17995426 3.89950046,9.19275626 C2.40631532,9.92103131 0.854316572,9.81116842 0.433014235,8.94737062 C0.0117118993,8.08357283 0.880644599,6.79294277 2.37382974,6.06466772 C2.45504649,6.02505566 2.53274557,5.98972374 2.60713717,5.95846253 C2.32720065,5.86509272 2.00657391,5.65483982 1.62321153,5.28463107 C0.282853584,3.99026245 -0.196712056,2.31239297 0.55207169,1.5370047 C1.21836645,0.847036287 2.63276172,1.10415354 3.88069494,2.08116269 C4.67457629,0.697744033 5.95326555,-0.0581898825 6.90092274,0.363734284 C7.95011433,0.830864476 8.19788208,2.5656138 7.45844443,4.24541217 C9.07102674,4.01157922 10.4849452,4.56797793 10.6331922,5.50397305 C10.7835356,6.45320388 9.57522743,7.4333882 7.93436036,7.69327602 C6.29349328,7.95316383 6.21268537,7.17715544 6.06234198,6.22792461 C6.01950394,5.95745591 5.97564266,5.70210695 5.97277766,5.46920817 C5.61399257,5.42742858 5.22904003,5.24801607 4.80947096,5.06121189 C4.7034022,5.01398703 4.59916485,4.96809017 4.49823133,4.92201182 C4.4295646,4.99440771 4.35819512,5.06768564 4.28581437,5.1426381 C4.05028048,5.38654059 3.83209388,5.61912229 3.60192925,5.78308676 C4.10604126,5.8833158 4.32578982,6.37187507 4.59247711,6.91866503 C4.78251458,7.3082996 4.9639259,7.66094833 4.96878624,7.9975398 C5.03493107,7.96773595 5.10258428,7.93789238 5.17114814,7.90736579 C6.04912297,7.51646621 6.74394951,7.16159296 7.41966951,8.67928493 C8.09538951,10.1969769 7.93142957,11.744196 7.05345474,12.1350956 C6.1754799,12.5259952 4.91596138,11.6125495 4.24024138,10.0948575 C4.06823554,9.70852609 3.98722835,9.40246426 3.97651889,9.15439191 Z" id="Combined-Shape"></path>
                                </g>
                                <g id="Group" transform="translate(0.000000, 0.561492)" stroke="#20156A">
                                    <path d="M5.91352281,5.56728726 C7.75943468,5.56728726 9.25584192,4.63237256 9.25584192,3.47909683 C9.25584192,2.3258211 7.75943468,1.3909064 5.91352281,1.3909064 C4.06761093,1.3909064 4.11381252,2.3258211 4.11381252,3.47909683 C4.11381252,4.63237256 4.06761093,5.56728726 5.91352281,5.56728726 Z" id="Oval-2-Copy" transform="translate(6.684775, 3.479097) rotate(-66.000000) translate(-6.684775, -3.479097) "></path>
                                    <path d="M2.4700564,6.05817455 C4.33337321,6.05817455 5.84388994,5.18435054 5.84388994,4.106434 C5.84388994,3.02851746 4.33337321,2.15469345 2.4700564,2.15469345 C0.606739586,2.15469345 0.6533768,3.02851746 0.6533768,4.106434 C0.6533768,5.18435054 0.606739586,6.05817455 2.4700564,6.05817455 Z" id="Oval-2-Copy-2" transform="translate(3.248580, 4.106434) rotate(-136.000000) translate(-3.248580, -4.106434) "></path>
                                    <path d="M2.64826064,10.4397316 C4.30958133,10.4397316 5.65634784,9.66063601 5.65634784,8.6995729 C5.65634784,7.73850979 4.30958133,6.95941421 2.64826064,6.95941421 C0.986939953,6.95941421 1.02852138,7.73850979 1.02852138,8.6995729 C1.02852138,9.66063601 0.986939953,10.4397316 2.64826064,10.4397316 Z" id="Oval-2-Copy-3" transform="translate(3.342387, 8.699573) rotate(-206.000000) translate(-3.342387, -8.699573) "></path>
                                    <path d="M8.48319293,8.3726907 C10.1445136,8.3726907 11.4912801,7.59359511 11.4912801,6.63253201 C11.4912801,5.6714689 10.1445136,4.89237332 8.48319293,4.89237332 C6.82187225,4.89237332 6.86345367,5.6714689 6.86345367,6.63253201 C6.86345367,7.59359511 6.82187225,8.3726907 8.48319293,8.3726907 Z" id="Oval-2" transform="translate(9.177320, 6.632532) rotate(-9.000000) translate(-9.177320, -6.632532) "></path>
                                    <path d="M6.24775472,12.527922 C7.90907541,12.527922 9.25584192,11.7488264 9.25584192,10.7877633 C9.25584192,9.82670022 7.90907541,9.04760464 6.24775472,9.04760464 C4.58643403,9.04760464 4.62801546,9.82670022 4.62801546,10.7877633 C4.62801546,11.7488264 4.58643403,12.527922 6.24775472,12.527922 Z" id="Oval-2-Copy-4" transform="translate(6.941881, 10.787763) rotate(-294.000000) translate(-6.941881, -10.787763) "></path>
                                </g>
                                <ellipse id="Oval" stroke="#20156A" fill="#FFFFFF" cx="5.91345456" cy="7.17287472" rx="1.2855336" ry="1.74015869"></ellipse>
                            </g>
                        </g>
                    </g>
                    <g id="seeds" transform="translate(62.734238, 74.848461) rotate(38.000000) translate(-62.734238, -74.848461) translate(44.283787, 61.537438)" stroke="#20156A" stroke-width="2">
                        <ellipse id="Oval-5" transform="translate(17.873874, 18.519685) rotate(122.000000) translate(-17.873874, -18.519685) " cx="17.8738739" cy="18.519685" rx="1.72972973" ry="3.47244094"></ellipse>
                        <ellipse id="Oval-5-Copy" transform="translate(24.792793, 4.629921) rotate(50.000000) translate(-24.792793, -4.629921) " cx="24.7927928" cy="4.62992126" rx="1.72972973" ry="3.47244094"></ellipse>
                        <ellipse id="Oval-5-Copy-2" transform="translate(32.864865, 16.204724) rotate(90.000000) translate(-32.864865, -16.204724) " cx="32.8648649" cy="16.2047244" rx="1.72972973" ry="3.47244094"></ellipse>
                        <ellipse id="Oval-5-Copy-3" transform="translate(12.108108, 8.102362) rotate(129.000000) translate(-12.108108, -8.102362) " cx="12.1081081" cy="8.1023622" rx="1.72972973" ry="3.47244094"></ellipse>
                        <ellipse id="Oval-5-Copy-4" transform="translate(4.036036, 21.992126) rotate(47.000000) translate(-4.036036, -21.992126) " cx="4.03603604" cy="21.992126" rx="1.72972973" ry="3.47244094"></ellipse>
                    </g>
                    <g id="Pot" transform="translate(34.594595, 87.968504)">
                        <path d="M8.07207207,3.47244094 L54.1981982,3.47244094 C55.471936,3.47244094 56.4084974,4.50888412 56.2900666,5.78740157 L52.4301841,47.4566929 C52.3117533,48.7352104 51.3577361,49.7716535 50.299327,49.7716535 L11.9709432,49.7716535 C10.9125341,49.7716535 9.95851693,48.7352104 9.84008614,47.4566929 L5.98020368,5.78740157 C5.86177289,4.50888412 6.79833427,3.47244094 8.07207207,3.47244094 Z" id="Rectangle-30-Copy-3" fill="#FFFFFF"></path>
                        <path d="M30.801011,3.47244094 C36.0208523,3.47244094 43.7765166,3.47244094 54.0680038,3.47244094 C55.4206359,3.47244094 56.4152072,4.50888412 56.2894409,5.78740157 L52.1904803,47.4566929 C52.064714,48.7352104 51.0516057,49.7716535 49.9276395,49.7716535 C41.558503,49.7716535 35.1829602,49.7716535 30.801011,49.7716535 L30.801011,3.47244094 Z" id="Rectangle-30-Copy" fill="#4086EE"></path>
                        <path d="M8.07207207,4.47244094 C7.38909223,4.47244094 6.91162364,5.00083029 6.97594081,5.69516511 L10.8358233,47.3644564 C10.909716,48.1621644 11.4707339,48.7716535 11.9709432,48.7716535 L50.299327,48.7716535 C50.7995364,48.7716535 51.3605542,48.1621644 51.434447,47.3644564 L55.2943295,5.69516511 C55.3586466,5.00083029 54.881178,4.47244094 54.1981982,4.47244094 L8.07207207,4.47244094 Z" id="Rectangle-30-Copy-2" stroke="#20156A" stroke-width="2"></path>
                        <g id="Rectangle-30">
                            <use fill="#FFFFFF" fill-rule="evenodd" xlink:href="#path-2"></use>
                            <rect stroke="#20156A" stroke-width="2" x="1" y="1" width="60.2702703" height="11.8897638" rx="2"></rect>
                        </g>
                    </g>
                    <g id="Trowel" transform="translate(97.396151, 35.062088) rotate(-145.000000) translate(-97.396151, -35.062088) translate(83.396151, 2.062088)">
                        <rect id="Rectangle-Copy" fill="#E2238E" x="8.08001838" y="31.0466651" width="8.15120983" height="34.3635471" rx="4"></rect>
                        <rect id="Rectangle-Copy-2" stroke="#20156A" stroke-width="2" x="11.7963105" y="29.0185968" width="6.15120983" height="32.3635471" rx="3.07560492"></rect>
                        <path d="M13.5025428,34.7005928 C20.8158262,34.7005928 26.7444139,33.7820235 26.7444139,24.6508762 C26.7444139,15.5197289 20.8158262,0.337045716 13.5025428,0.337045716 C6.18925934,0.337045716 0.260671717,15.5197289 0.260671717,24.6508762 C0.260671717,33.7820235 6.18925934,34.7005928 13.5025428,34.7005928 Z" id="Oval-6-Copy-2" fill="#FFFFFF"></path>
                        <path d="M14.2567298,35.382214 C21.5700133,35.382214 27.4986009,34.4636447 27.4986009,25.3324974 C27.4986009,16.2013501 21.5700133,1.01866695 14.2567298,1.01866695 L14.2567298,35.382214 Z" id="Oval-6" fill="#EFEFEF"></path>
                        <path d="M14.2567298,35.382214 C21.5700133,35.382214 27.4986009,34.4636447 27.4986009,25.3324974 C27.4986009,16.2013501 19.6114153,1.01866695 14.2567298,1.01866695 C8.90204431,1.01866695 1.01485873,16.2013501 1.01485873,25.3324974 C1.01485873,34.4636447 6.94344635,35.382214 14.2567298,35.382214 Z" id="Oval-6-Copy" stroke="#20156A" stroke-width="2"></path>
                    </g>
                </g>
                <g id="Pot" transform="translate(34.594595, 87.968504)">
                    <path d="M8.07207207,3.47244094 L54.1981982,3.47244094 C55.471936,3.47244094 56.4084974,4.50888412 56.2900666,5.78740157 L52.4301841,47.4566929 C52.3117533,48.7352104 51.3577361,49.7716535 50.299327,49.7716535 L11.9709432,49.7716535 C10.9125341,49.7716535 9.95851693,48.7352104 9.84008614,47.4566929 L5.98020368,5.78740157 C5.86177289,4.50888412 6.79833427,3.47244094 8.07207207,3.47244094 Z" id="Rectangle-30-Copy-3" fill="#FFFFFF"></path>
                    <path d="M30.801011,3.47244094 C36.0208523,3.47244094 43.7765166,3.47244094 54.0680038,3.47244094 C55.4206359,3.47244094 56.4152072,4.50888412 56.2894409,5.78740157 L52.1904803,47.4566929 C52.064714,48.7352104 51.0516057,49.7716535 49.9276395,49.7716535 C41.558503,49.7716535 35.1829602,49.7716535 30.801011,49.7716535 L30.801011,3.47244094 Z" id="Rectangle-30-Copy" fill="#4086EE"></path>
                    <path d="M8.07207207,4.47244094 C7.38909223,4.47244094 6.91162364,5.00083029 6.97594081,5.69516511 L10.8358233,47.3644564 C10.909716,48.1621644 11.4707339,48.7716535 11.9709432,48.7716535 L50.299327,48.7716535 C50.7995364,48.7716535 51.3605542,48.1621644 51.434447,47.3644564 L55.2943295,5.69516511 C55.3586466,5.00083029 54.881178,4.47244094 54.1981982,4.47244094 L8.07207207,4.47244094 Z" id="Rectangle-30-Copy-2" stroke="#20156A" stroke-width="2"></path>
                    <g id="Rectangle-30">
                        <use fill="#FFFFFF" fill-rule="evenodd" xlink:href="#path-3"></use>
                        <rect stroke="#20156A" stroke-width="2" x="1" y="1" width="60.2702703" height="11.8897638" rx="2"></rect>
                    </g>
                </g>
            </g>
        </g>
    </g>
</svg>