<?xml version="1.0" encoding="UTF-8" standalone="no"?>
<svg width="85px" height="127px" viewBox="0 0 85 127" version="1.1" xmlns="http://www.w3.org/2000/svg" xmlns:xlink="http://www.w3.org/1999/xlink">
    <!-- Generator: Sketch 47.1 (45422) - http://www.bohemiancoding.com/sketch -->
    <title>Plant - empty</title>
    <desc>Created with Sketch.</desc>
    <defs>
        <linearGradient x1="7.44642857%" y1="-43.8945312%" x2="81.3727679%" y2="169.929688%" id="linearGradient-1">
            <stop stop-color="#005DE8" offset="0%"></stop>
            <stop stop-color="#E62899" offset="100%"></stop>
        </linearGradient>
        <rect id="path-2" x="0" y="0" width="66.96" height="14.5142857" rx="2"></rect>
    </defs>
    <g id="Louise-iterations" stroke="none" stroke-width="1" fill="none" fill-rule="evenodd">
        <g id="Quizzes" transform="translate(-114.000000, -355.000000)">
            <g id="Plant---empty" transform="translate(105.000000, 355.000000)">
                <g id="plant" transform="translate(50.840000, 47.171429)" stroke="#20156A" stroke-width="2">
                    <path d="M0.924259259,30.2380952 C-0.748209877,27.1234696 -0.150899471,23.8980728 2.71619048,20.5619048 C5.58328042,17.2257367 5.7027425,14.0003399 3.07457672,10.8857143" id="stem" stroke-linecap="round"></path>
                    <path d="M13.2601072,9.16424771 C16.7003733,6.72617969 17.1072893,1.55181115 17.1072893,1.55181115 C17.1072893,1.55181115 11.9364317,0.330331884 8.49616561,2.7683999 C5.05589948,5.20646792 4.64898351,10.3808365 4.64898351,10.3808365 C4.64898351,10.3808365 9.81984103,11.6023157 13.2601072,9.16424771 Z" id="leaf-outline" fill="url(#linearGradient-1)" stroke-linejoin="round" transform="translate(10.878136, 5.966324) rotate(-13.000000) translate(-10.878136, -5.966324) "></path>
                </g>
                <path d="M15.5,116.114286 L92.4699474,116.114286" id="Line-4" stroke="#20156A" stroke-width="2" stroke-linecap="round"></path>
                <path d="M29.76,125.790476 L59.52,125.790476" id="Line-4-Copy" stroke="#20156A" stroke-width="2" stroke-linecap="round"></path>
                <path d="M66.96,125.790476 L85.56,125.790476" id="Line-4-Copy-2" stroke="#20156A" stroke-width="2" stroke-linecap="round"></path>
                <g id="Pot" transform="translate(21.080000, 65.314286)">
                    <path d="M33.1207121,3.62857143 C38.7336727,3.62857143 47.0734355,3.62857143 58.1400003,3.62857143 C59.5945026,3.62857143 60.6639775,4.71161594 60.5287394,6.04761905 L56.1210758,49.5904762 C55.9858378,50.9264793 54.8964297,52.0095238 53.6878149,52.0095238 C44.6883778,52.0095238 37.8326769,52.0095238 33.1207121,52.0095238 L33.1207121,3.62857143 Z" id="Rectangle-30-Copy" fill="#4086EE"></path>
                    <path d="M8.68,4.62857143 C7.89497563,4.62857143 7.35518828,5.20906587 7.42607538,5.95272746 L11.5766552,49.4955846 C11.6578614,50.3475008 12.2849338,51.0095238 12.8725049,51.0095238 L54.0874951,51.0095238 C54.6750662,51.0095238 55.3021386,50.3475008 55.3833448,49.4955846 L59.5339246,5.95272746 C59.6048117,5.20906587 59.0650244,4.62857143 58.28,4.62857143 L8.68,4.62857143 Z" id="Rectangle-30-Copy-2" stroke="#20156A" stroke-width="2"></path>
                    <g id="Rectangle-30">
                        <use fill="#FFFFFF" fill-rule="evenodd" xlink:href="#path-2"></use>
                        <rect stroke="#20156A" stroke-width="2" x="1" y="1" width="64.96" height="12.5142857" rx="2"></rect>
                    </g>
                </g>
                <g id="clouds" transform="translate(9.920000, 0.000000)" fill="#EFEFEF">
                    <path d="M53.8441204,14.3674622 C53.5064627,13.5776704 53.32,12.7109973 53.32,11.8018439 C53.32,8.11776918 56.3817839,5.1312365 60.1586857,5.1312365 C60.3952741,5.1312365 60.6290564,5.14295528 60.8594559,5.16583023 C61.5589697,2.20647212 64.2770298,0 67.5234242,0 C70.8340679,0 73.5952578,2.29467276 74.2265413,5.34240926 C74.7742071,5.20456278 75.3484588,5.1312365 75.9402682,5.1312365 C79.7171701,5.1312365 82.778954,8.11776918 82.778954,11.8018439 C82.778954,12.7109973 82.5924913,13.5776704 82.2548336,14.3674622 L53.8441204,14.3674622 Z" id="Combined-Shape-Copy-3"></path>
                    <path d="M0.225118749,33.2993828 C0.0783400873,32.7438934 0,32.1593701 0,31.5560076 C0,27.8972173 2.8807298,24.9311817 6.43429009,24.9311817 C6.70081675,24.9311817 6.96355846,24.9478669 7.22158367,24.980278 C7.68857137,21.794467 10.3590488,19.352381 13.5835013,19.352381 C16.8510509,19.352381 19.5497179,21.8601837 19.9629589,25.1084145 C20.4395613,24.9925124 20.9366412,24.9311817 21.4476336,24.9311817 C25.0011939,24.9311817 27.8819237,27.8972173 27.8819237,31.5560076 C27.8819237,32.1593701 27.8035836,32.7438934 27.656805,33.2993828 L0.225118749,33.2993828 Z" id="Combined-Shape-Copy-4"></path>
                </g>
            </g>
        </g>
    </g>
</svg>