<?xml version="1.0" encoding="UTF-8" standalone="no"?>
<svg width="640px" height="800px" viewBox="0 0 640 800" version="1.1" xmlns="http://www.w3.org/2000/svg" xmlns:xlink="http://www.w3.org/1999/xlink">
    <!-- Generator: Sketch 42 (36781) - http://www.bohemiancoding.com/sketch -->
    <title>icons sprite</title>
    <desc>Created with Sketch.</desc>
    <defs></defs>
    <g id="Higgs-icon" stroke="none" stroke-width="1" fill="none" fill-rule="evenodd">
        <g id="icons-sprite">
            <g id="Gray" transform="translate(40.000000, 40.000000)">
                <g id="linearicons/0826-chevron-up">
                    <g id="0826-chevron-up">
                        <g id="20x20boundary">
                            <rect id="20x20" x="0" y="0" width="20" height="20"></rect>
                        </g>
                        <path d="M1.147,14.85325 C1.342,15.04825 1.659,15.04825 1.854,14.85325 L10.5,6.20725 L19.146,14.85325 C19.341,15.04825 19.658,15.04825 19.853,14.85325 C20.048,14.65825 20.048,14.34125 19.853,14.14625 L10.853,5.14625 C10.658,4.95125 10.341,4.95125 10.146,5.14625 L1.146,14.14625 C1.048,14.24425 1,14.37225 1,14.50025 C1.001,14.62725 1.05,14.75525 1.147,14.85325 Z" id="Shape" fill="#333333" fill-rule="nonzero"></path>
                    </g>
                </g>
                <g id="linearicons/0826-chevron-down" transform="translate(60.000000, 0.000000)">
                    <g id="0826-chevron-up-copy" transform="translate(10.000000, 10.000000) scale(1, -1) translate(-10.000000, -10.000000) ">
                        <g id="20x20boundary">
                            <rect id="20x20" x="0" y="0" width="20" height="20"></rect>
                        </g>
                        <path d="M1.001,14.49925 C1.001,14.62725 1.05,14.75525 1.147,14.85325 C1.342,15.04825 1.659,15.04825 1.854,14.85325 L10.5,6.20725 L19.146,14.85325 C19.341,15.04825 19.658,15.04825 19.853,14.85325 C20.048,14.65825 20.048,14.34125 19.853,14.14625 L10.853,5.14625 C10.658,4.95125 10.341,4.95125 10.146,5.14625 L1.146,14.14625 C1.048,14.24425 1,14.37225 1,14.50025 L1.001,14.49925 Z" id="Shape" fill="#333333" fill-rule="nonzero"></path>
                    </g>
                </g>
                <g id="linearicons/0828-chevron-left" transform="translate(120.000000, 0.000000)">
                    <g id="0828-chevron-left">
                        <g id="20x20boundary">
                            <rect id="20x20" x="0" y="0" width="20" height="20"></rect>
                        </g>
                        <path d="M14.49925,19.99825 C14.62725,19.99825 14.75525,19.94925 14.85325,19.85225 C15.04825,19.65725 15.04825,19.34025 14.85325,19.14525 L6.20725,10.49925 L14.85325,1.85325 C15.04825,1.65825 15.04825,1.34125 14.85325,1.14625 C14.65825,0.95125 14.34125,0.95125 14.14625,1.14625 L5.14625,10.14625 C4.95125,10.34125 4.95125,10.65825 5.14625,10.85325 L14.14625,19.85325 C14.24425,19.95125 14.37225,19.99925 14.50025,19.99925 L14.49925,19.99825 Z" id="Shape" fill="#333333" fill-rule="nonzero"></path>
                    </g>
                </g>
                <g id="linearicons/0829-chevron-right" transform="translate(180.000000, 0.000000)">
                    <g id="0829-chevron-right">
                        <g id="20x20boundary">
                            <rect id="20x20" x="0" y="0" width="20" height="20"></rect>
                        </g>
                        <path d="M5.50025,19.99825 C5.37225,19.99825 5.24425,19.94925 5.14625,19.85225 C4.95125,19.65725 4.95125,19.34025 5.14625,19.14525 L13.79225,10.49925 L5.14625,1.85325 C4.95125,1.65825 4.95125,1.34125 5.14625,1.14625 C5.34125,0.95125 5.65825,0.95125 5.85325,1.14625 L14.85325,10.14625 C15.04825,10.34125 15.04825,10.65825 14.85325,10.85325 L5.85325,19.85325 C5.75525,19.95125 5.62725,19.99925 5.49925,19.99925 L5.50025,19.99825 Z" id="Shape" fill="#333333" fill-rule="nonzero"></path>
                    </g>
                </g>
                <g id="linearicons/0390-calendar-empty" transform="translate(540.000000, 0.000000)" fill="#333333">
                    <g id="0390-calendar-empty">
                        <path d="M18.5,2 L16,2 L16,1.5 C16,1.224 15.776,1 15.5,1 C15.224,1 15,1.224 15,1.5 L15,2 L5,2 L5,1.5 C5,1.224 4.776,1 4.5,1 C4.224,1 4,1.224 4,1.5 L4,2 L1.5,2 C0.673,2 0,2.673 0,3.5 L0,17.5 C0,18.327 0.673,19 1.5,19 L18.5,19 C19.327,19 20,18.327 20,17.5 L20,3.5 C20,2.673 19.327,2 18.5,2 Z M1.5,3 L4,3 L4,4.5 C4,4.776 4.224,5 4.5,5 C4.776,5 5,4.776 5,4.5 L5,3 L15,3 L15,4.5 C15,4.776 15.224,5 15.5,5 C15.776,5 16,4.776 16,4.5 L16,3 L18.5,3 C18.776,3 19,3.224 19,3.5 L19,6 L1,6 L1,3.5 C1,3.224 1.224,3 1.5,3 Z M18.5,18 L1.5,18 C1.224,18 1,17.776 1,17.5 L1,7 L19,7 L19,17.5 C19,17.776 18.776,18 18.5,18 Z" id="Shape" fill-rule="nonzero"></path>
                    </g>
                </g>
                <g id="linearicons/0279-bookmark2" transform="translate(360.000000, 0.000000)">
                    <g id="0279-bookmark2">
                        <g id="20x20boundary">
                            <rect id="20x20" x="0" y="0" width="20" height="20"></rect>
                        </g>
                        <path d="M16.5,20 C16.357,20 16.217,19.938 16.12,19.825 L10.5,13.268 L4.88,19.825 C4.744,19.984 4.523,20.041 4.327,19.969 C4.131,19.897 4,19.709 4,19.5 L4,1.5 C4,1.224 4.224,1 4.5,1 L16.5,1 C16.776,1 17,1.224 17,1.5 L17,19.5 C17,19.709 16.87,19.896 16.673,19.969 C16.616,19.99 16.558,20 16.5,20 L16.5,20 Z M10.5,12 C10.646,12 10.785,12.064 10.88,12.175 L16,18.149 L16,2.001 L5,2.001 L5,18.149 L10.12,12.175 C10.215,12.064 10.354,12 10.5,12 L10.5,12 Z" id="Shape" fill="#333333" fill-rule="nonzero"></path>
                    </g>
                </g>
                <g id="linearicons/0745-clock3" transform="translate(480.000000, 0.000000)">
                    <g id="0745-clock3">
                        <g id="20x20boundary">
                            <rect id="20x20" x="0" y="0" width="20" height="20"></rect>
                        </g>
                        <g id="Group" transform="translate(1.000000, 1.000000)" fill-rule="nonzero" fill="#333333">
                            <path d="M16.218,2.782 C14.424,0.988 12.038,0 9.5,0 C6.962,0 4.577,0.988 2.782,2.782 C0.988,4.576 0,6.962 0,9.499 C0,12.036 0.988,14.422 2.782,16.217 C4.576,18.012 6.962,18.999 9.5,18.999 C12.038,18.999 14.423,18.011 16.218,16.217 C18.013,14.423 19,12.037 19,9.499 C19,6.961 18.012,4.576 16.218,2.782 L16.218,2.782 Z M9.5,18 C4.813,18 1,14.187 1,9.5 C1,4.813 4.813,1 9.5,1 C14.187,1 18,4.813 18,9.5 C18,14.187 14.187,18 9.5,18 Z" id="Shape"></path>
                            <path d="M15.2241712,7.25001046 C15.0861712,7.01101046 14.7801712,6.92901046 14.5411712,7.06701046 L9.6211712,9.90801046 L5.7861712,7.22301046 C5.5601712,7.06501046 5.2481712,7.12001046 5.0901712,7.34601046 C4.9321712,7.57201046 4.9871712,7.88401046 5.2131712,8.04201046 L9.3091712,10.9100105 C9.3101712,10.9110105 9.3111712,10.9110105 9.3121712,10.9120105 C9.3201712,10.9180105 9.3291712,10.9230105 9.3381712,10.9280105 C9.3401712,10.9290105 9.3431712,10.9310105 9.3451712,10.9320105 C9.3541712,10.9370105 9.3631712,10.9420105 9.3721712,10.9460105 C9.3741712,10.9470105 9.3761712,10.9480105 9.3781712,10.9490105 C9.3881712,10.9540105 9.3981712,10.9580105 9.4091712,10.9630105 C9.4151712,10.9650105 9.4211712,10.9680105 9.4281712,10.9700105 C9.4331712,10.9720105 9.4371712,10.9730105 9.4421712,10.9750105 C9.4491712,10.9770105 9.4551712,10.9790105 9.4621712,10.9810105 C9.4661712,10.9820105 9.4711712,10.9830105 9.4751712,10.9840105 C9.4821712,10.9860105 9.4891712,10.9870105 9.4951712,10.9890105 C9.5001712,10.9900105 9.5041712,10.9910105 9.5091712,10.9920105 C9.5151712,10.9930105 9.5221712,10.9940105 9.5281712,10.9950105 C9.5341712,10.9960105 9.5401712,10.9960105 9.5461712,10.9970105 C9.5511712,10.9980105 9.5571712,10.9980105 9.5621712,10.9990105 C9.5741712,11.0000105 9.5851712,11.0000105 9.5971712,11.0000105 C9.6161712,11.0000105 9.6351712,10.9990105 9.6541712,10.9970105 L9.6551712,10.9970105 C9.6731712,10.9950105 9.6921712,10.9910105 9.7101712,10.9870105 C9.7111712,10.9870105 9.7131712,10.9860105 9.7141712,10.9860105 C9.7311712,10.9820105 9.7481712,10.9770105 9.7651712,10.9700105 C9.7681712,10.9690105 9.7701712,10.9680105 9.7721712,10.9670105 C9.7881712,10.9610105 9.8041712,10.9540105 9.8191712,10.9460105 C9.8221712,10.9440105 9.8251712,10.9430105 9.8281712,10.9410105 C9.8341712,10.9380105 9.8391712,10.9350105 9.8451712,10.9320105 L15.0411712,7.93201046 C15.2801712,7.79401046 15.3621712,7.48801046 15.2241712,7.24901046 L15.2241712,7.25001046 Z" id="Shape"></path>
                        </g>
                    </g>
                </g>
                <g id="linearicons/0821-check" transform="translate(300.000000, 0.000000)">
                    <g id="0821-check">
                        <g id="20x20boundary">
                            <rect id="20x20" x="0" y="0" width="20" height="20"></rect>
                        </g>
                        <path d="M5.50025,17.99925 C5.37225,17.99925 5.24425,17.95025 5.14625,17.85325 L0.14625,12.85325 C-0.04875,12.65825 -0.04875,12.34125 0.14625,12.14625 C0.34125,11.95125 0.65825,11.95125 0.85325,12.14625 L5.49925,16.79225 L19.14525,3.14625 C19.34025,2.95125 19.65725,2.95125 19.85225,3.14625 C20.04725,3.34125 20.04725,3.65825 19.85225,3.85325 L5.85225,17.85325 C5.75425,17.95125 5.62625,17.99925 5.49825,17.99925 L5.50025,17.99925 Z" id="Shape" fill="#333333" fill-rule="nonzero"></path>
                    </g>
                </g>
                <g id="linearicons/0822-cross2" transform="translate(240.000000, 0.000000)">
                    <g id="0822-cross2">
                        <g id="20x20boundary">
                            <rect id="20x20" x="0" y="0" width="20" height="20"></rect>
                        </g>
                        <path d="M11.20625,10.49925 L19.85225,1.85325 C20.04725,1.65825 20.04725,1.34125 19.85225,1.14625 C19.65725,0.95125 19.34025,0.95125 19.14525,1.14625 L10.49925,9.79225 L1.85325,1.14625 C1.65825,0.95125 1.34125,0.95125 1.14625,1.14625 C0.95125,1.34125 0.95125,1.65825 1.14625,1.85325 L9.79225,10.49925 L1.14625,19.14525 C0.95125,19.34025 0.95125,19.65725 1.14625,19.85225 C1.24425,19.95025 1.37225,19.99825 1.50025,19.99825 C1.62825,19.99825 1.75625,19.94925 1.85425,19.85225 L10.50025,11.20625 L19.14625,19.85225 C19.24425,19.95025 19.37225,19.99825 19.50025,19.99825 C19.62825,19.99825 19.75625,19.94925 19.85425,19.85225 C20.04925,19.65725 20.04925,19.34025 19.85425,19.14525 L11.20825,10.49925 L11.20625,10.49925 Z" id="Shape" fill="#333333" fill-rule="nonzero"></path>
                    </g>
                </g>
                <g id="linearicons/0811-cross" transform="translate(180.000000, 60.000000)">
                    <g id="20x20boundary">
                        <rect id="20x20" x="0" y="0" width="20" height="20"></rect>
                    </g>
                    <g id="0811-cross" stroke-width="1" fill-rule="evenodd" transform="translate(3.000000, 4.000000)" fill="#333333">
                        <path d="M7.707,6.5 L13.353,0.854 C13.548,0.659 13.548,0.342 13.353,0.147 C13.158,-0.048 12.841,-0.048 12.646,0.147 L7,5.793 L1.354,0.147 C1.159,-0.048 0.842,-0.048 0.647,0.147 C0.452,0.342 0.452,0.659 0.647,0.854 L6.293,6.5 L0.647,12.146 C0.452,12.341 0.452,12.658 0.647,12.853 C0.745,12.951 0.873,12.999 1.001,12.999 C1.129,12.999 1.257,12.95 1.355,12.853 L7.001,7.207 L12.647,12.853 C12.745,12.951 12.873,12.999 13.001,12.999 C13.129,12.999 13.257,12.95 13.355,12.853 C13.55,12.658 13.55,12.341 13.355,12.146 L7.709,6.5 L7.707,6.5 Z" id="Shape" fill-rule="nonzero"></path>
                    </g>
                </g>
                <g id="linearicons/0812-menu" transform="translate(240.000000, 60.000000)">
                    <g id="20x20boundary">
                        <rect id="20x20" x="0" y="0" width="20" height="20"></rect>
                    </g>
                    <g id="0812-menu" stroke-width="1" fill-rule="evenodd" transform="translate(2.000000, 5.000000)" fill="#000000">
                        <g id="Group" fill-rule="nonzero">
                            <path d="M15.5,1 L0.5,1 C0.224,1 0,0.776 0,0.5 C0,0.224 0.224,0 0.5,0 L15.5,0 C15.776,0 16,0.224 16,0.5 C16,0.776 15.776,1 15.5,1 Z" id="Shape"></path>
                            <path d="M15.5,6 L0.5,6 C0.224,6 0,5.776 0,5.5 C0,5.224 0.224,5 0.5,5 L15.5,5 C15.776,5 16,5.224 16,5.5 C16,5.776 15.776,6 15.5,6 Z" id="Shape"></path>
                            <path d="M15.5,11 L0.5,11 C0.224,11 0,10.776 0,10.5 C0,10.224 0.224,10 0.5,10 L15.5,10 C15.776,10 16,10.224 16,10.5 C16,10.776 15.776,11 15.5,11 Z" id="Shape"></path>
                        </g>
                    </g>
                </g>
                <g id="linearicons/0445-lamp" transform="translate(420.000000, 0.000000)">
                    <g id="0445-lamp">
                        <g id="Group">
                            <g id="20x20boundary">
                                <rect id="20x20" x="0" y="0" width="20" height="20"></rect>
                            </g>
                            <path d="M10.5,20 L9.5,20 C9.224,20 9,19.776 9,19.5 C9,19.224 9.224,19 9.5,19 L10.5,19 C10.776,19 11,19.224 11,19.5 C11,19.776 10.776,20 10.5,20 Z" id="Shape" fill="#000000" fill-rule="nonzero"></path>
                            <path d="M10,0 C6.692,0 4,2.692 4,6 C4,8.114 5.014,9.828 5.057,9.9 C5.323,10.344 5.702,11.128 5.883,11.612 L6.681,13.739 C6.802,14.061 7.034,14.352 7.322,14.573 C7.121,14.828 7,15.15 7,15.5 C7,15.884 7.145,16.234 7.383,16.5 C7.145,16.766 7,17.116 7,17.5 C7,18.327 7.673,19 8.5,19 L11.5,19 C12.327,19 13,18.327 13,17.5 C13,17.116 12.855,16.766 12.617,16.5 C12.855,16.234 13,15.884 13,15.5 C13,15.15 12.879,14.828 12.678,14.573 C12.966,14.352 13.198,14.062 13.319,13.739 L14.116,11.612 C14.298,11.128 14.676,10.344 14.942,9.9 C14.985,9.828 16,8.114 16,6 C16,2.692 13.308,1.77635684e-15 10,1.77635684e-15 L10,0 Z M11.5,18 L8.5,18 C8.224,18 8,17.776 8,17.5 C8,17.224 8.224,17 8.5,17 L11.5,17 C11.776,17 12,17.224 12,17.5 C12,17.776 11.776,18 11.5,18 Z M12,15.5 C12,15.776 11.776,16 11.5,16 L8.5,16 C8.224,16 8,15.776 8,15.5 C8,15.224 8.224,15 8.5,15 L11.5,15 C11.776,15 12,15.224 12,15.5 Z M14.085,9.385 C13.788,9.879 13.382,10.721 13.18,11.261 L12.383,13.388 C12.263,13.708 11.842,14 11.5,14 L8.5,14 C8.158,14 7.737,13.708 7.617,13.388 L6.819,11.261 C6.617,10.721 6.211,9.88 5.914,9.385 C5.905,9.37 5,7.84 5,6 C5,3.243 7.243,1 10,1 C12.757,1 15,3.243 15,6 C15,7.829 14.094,9.371 14.085,9.385 Z" id="Shape" fill="#333333" fill-rule="nonzero"></path>
                        </g>
                    </g>
                </g>
                <g id="linearicons/0858-checkmark-circle" transform="translate(0.000000, 60.000000)">
                    <g id="0858-checkmark-circle">
                        <g id="20x20boundary">
                            <rect id="20x20" x="0" y="0" width="20" height="20"></rect>
                        </g>
                        <path d="M10.5,20 C7.962,20 5.577,19.012 3.782,17.218 C1.987,15.424 1,13.038 1,10.501 C1,7.963 1.988,5.578 3.782,3.783 C5.576,1.988 7.962,1 10.5,1 C13.038,1 15.423,1.988 17.218,3.783 C19.013,5.578 20,7.963 20,10.501 C20,13.039 19.012,15.424 17.218,17.218 C15.424,19.012 13.038,20 10.5,20 Z M10.5,2 C5.813,2 2,5.813 2,10.5 C2,15.187 5.813,19 10.5,19 C15.187,19 19,15.187 19,10.5 C19,5.813 15.187,2 10.5,2 Z" id="Shape" fill="#333333" fill-rule="nonzero"></path>
                        <path d="M8.5,14.5 C8.372,14.5 8.244,14.451 8.146,14.354 L5.146,11.354 C4.951,11.159 4.951,10.842 5.146,10.647 C5.341,10.452 5.658,10.452 5.853,10.647 L8.499,13.293 L15.145,6.647 C15.34,6.452 15.657,6.452 15.852,6.647 C16.047,6.842 16.047,7.159 15.852,7.354 L8.852,14.354 C8.754,14.452 8.626,14.5 8.498,14.5 L8.5,14.5 Z" id="Shape" fill="#333333" fill-rule="nonzero"></path>
                    </g>
                </g>
                <g id="linearicons/0859-cross-circle" transform="translate(60.000000, 60.000000)">
                    <g id="0859-cross-circle">
                        <g id="20x20boundary">
                            <rect id="20x20" x="0" y="0" width="20" height="20"></rect>
                        </g>
                        <g id="Group" transform="translate(1.000000, 1.000000)" fill-rule="nonzero" fill="#333333">
                            <path d="M14.332,13.126 L10.252,9.5 L14.332,5.874 C14.538,5.691 14.557,5.375 14.374,5.168 C14.191,4.961 13.875,4.943 13.668,5.126 L9.5,8.831 L5.332,5.126 C5.126,4.943 4.81,4.961 4.626,5.168 C4.442,5.375 4.461,5.69 4.668,5.874 L8.748,9.5 L4.668,13.126 C4.462,13.309 4.443,13.625 4.626,13.832 C4.725,13.943 4.862,14 5,14 C5.118,14 5.237,13.958 5.332,13.874 L9.5,10.169 L13.668,13.874 C13.763,13.959 13.882,14 14,14 C14.138,14 14.275,13.943 14.374,13.832 C14.557,13.626 14.539,13.31 14.332,13.126 Z" id="Shape"></path>
                            <path d="M9.5,19 C6.962,19 4.577,18.012 2.782,16.218 C0.987,14.424 0,12.038 0,9.501 C0,6.963 0.988,4.578 2.782,2.783 C4.576,0.988 6.962,1.33226763e-15 9.5,1.33226763e-15 C12.038,1.33226763e-15 14.423,0.988 16.218,2.783 C18.013,4.578 19,6.963 19,9.501 C19,12.039 18.012,14.424 16.218,16.218 C14.424,18.012 12.038,19 9.5,19 Z M9.5,1 C4.813,1 1,4.813 1,9.5 C1,14.187 4.813,18 9.5,18 C14.187,18 18,14.187 18,9.5 C18,4.813 14.187,1 9.5,1 Z" id="Shape"></path>
                        </g>
                    </g>
                </g>
                <g id="linearicons/0861-circle-minus" transform="translate(120.000000, 60.000000)" fill="#333333">
                    <g id="0861-circle-minus" transform="translate(1.000000, 1.000000)">
                        <g id="Group" fill-rule="nonzero">
                            <path d="M16.218,2.782 C14.424,0.988 12.038,0 9.5,0 C6.962,0 4.577,0.988 2.782,2.782 C0.987,4.576 0,6.962 0,9.499 C0,12.036 0.988,14.422 2.782,16.217 C4.576,18.012 6.962,18.999 9.5,18.999 C12.038,18.999 14.423,18.011 16.218,16.217 C18.013,14.423 19,12.037 19,9.499 C19,6.961 18.012,4.576 16.218,2.782 L16.218,2.782 Z M9.5,18 C4.813,18 1,14.187 1,9.5 C1,4.813 4.813,1 9.5,1 C14.187,1 18,4.813 18,9.5 C18,14.187 14.187,18 9.5,18 Z" id="Shape"></path>
                            <path d="M15.5,10 L3.5,10 C3.224,10 3,9.776 3,9.5 C3,9.224 3.224,9 3.5,9 L15.5,9 C15.776,9 16,9.224 16,9.5 C16,9.776 15.776,10 15.5,10 Z" id="Shape"></path>
                        </g>
                    </g>
                </g>
            </g>
            <g id="WHITE" transform="translate(40.000000, 400.000000)">
                <g id="linearicons/0826-chevron-up-copy">
                    <g id="0826-chevron-up">
                        <g id="20x20boundary">
                            <rect id="20x20" x="0" y="0" width="20" height="20"></rect>
                        </g>
                        <path d="M1.147,14.85325 C1.342,15.04825 1.659,15.04825 1.854,14.85325 L10.5,6.20725 L19.146,14.85325 C19.341,15.04825 19.658,15.04825 19.853,14.85325 C20.048,14.65825 20.048,14.34125 19.853,14.14625 L10.853,5.14625 C10.658,4.95125 10.341,4.95125 10.146,5.14625 L1.146,14.14625 C1.048,14.24425 1,14.37225 1,14.50025 C1.001,14.62725 1.05,14.75525 1.147,14.85325 Z" id="Shape" fill="#FFFFFF" fill-rule="nonzero"></path>
                    </g>
                </g>
                <g id="linearicons/0826-chevron-up-white" transform="translate(60.000000, 0.000000)">
                    <g id="0826-chevron-up-copy" transform="translate(10.000000, 10.000000) scale(1, -1) translate(-10.000000, -10.000000) ">
                        <g id="20x20boundary">
                            <rect id="20x20" x="0" y="0" width="20" height="20"></rect>
                        </g>
                        <path d="M1.001,14.49925 C1.001,14.62725 1.05,14.75525 1.147,14.85325 C1.342,15.04825 1.659,15.04825 1.854,14.85325 L10.5,6.20725 L19.146,14.85325 C19.341,15.04825 19.658,15.04825 19.853,14.85325 C20.048,14.65825 20.048,14.34125 19.853,14.14625 L10.853,5.14625 C10.658,4.95125 10.341,4.95125 10.146,5.14625 L1.146,14.14625 C1.048,14.24425 1,14.37225 1,14.50025 L1.001,14.49925 Z" id="Shape" fill="#FFFFFF" fill-rule="nonzero"></path>
                    </g>
                </g>
                <g id="linearicons/0828-chevron-left-copy" transform="translate(120.000000, 0.000000)">
                    <g id="0828-chevron-left">
                        <g id="20x20boundary">
                            <rect id="20x20" x="0" y="0" width="20" height="20"></rect>
                        </g>
                        <path d="M14.49925,19.99825 C14.62725,19.99825 14.75525,19.94925 14.85325,19.85225 C15.04825,19.65725 15.04825,19.34025 14.85325,19.14525 L6.20725,10.49925 L14.85325,1.85325 C15.04825,1.65825 15.04825,1.34125 14.85325,1.14625 C14.65825,0.95125 14.34125,0.95125 14.14625,1.14625 L5.14625,10.14625 C4.95125,10.34125 4.95125,10.65825 5.14625,10.85325 L14.14625,19.85325 C14.24425,19.95125 14.37225,19.99925 14.50025,19.99925 L14.49925,19.99825 Z" id="Shape" fill="#FFFFFF" fill-rule="nonzero"></path>
                    </g>
                </g>
                <g id="linearicons/0829-chevron-right-copy" transform="translate(180.000000, 0.000000)">
                    <g id="0829-chevron-right">
                        <g id="20x20boundary">
                            <rect id="20x20" x="0" y="0" width="20" height="20"></rect>
                        </g>
                        <path d="M5.50025,19.99825 C5.37225,19.99825 5.24425,19.94925 5.14625,19.85225 C4.95125,19.65725 4.95125,19.34025 5.14625,19.14525 L13.79225,10.49925 L5.14625,1.85325 C4.95125,1.65825 4.95125,1.34125 5.14625,1.14625 C5.34125,0.95125 5.65825,0.95125 5.85325,1.14625 L14.85325,10.14625 C15.04825,10.34125 15.04825,10.65825 14.85325,10.85325 L5.85325,19.85325 C5.75525,19.95125 5.62725,19.99925 5.49925,19.99925 L5.50025,19.99825 Z" id="Shape" fill="#FFFFFF" fill-rule="nonzero"></path>
                    </g>
                </g>
                <g id="linearicons/0390-calendar-empty-white" transform="translate(540.000000, 0.000000)" fill="#FFFFFF">
                    <g id="0390-calendar-empty">
                        <path d="M18.5,1.11111111 L16,1.11111111 L16,0.555555556 C16,0.248888889 15.776,0 15.5,0 C15.224,0 15,0.248888889 15,0.555555556 L15,1.11111111 L5,1.11111111 L5,0.555555556 C5,0.248888889 4.776,0 4.5,0 C4.224,0 4,0.248888889 4,0.555555556 L4,1.11111111 L1.5,1.11111111 C0.673,1.11111111 0,1.85888889 0,2.77777778 L0,18.3333333 C0,19.2522222 0.673,20 1.5,20 L18.5,20 C19.327,20 20,19.2522222 20,18.3333333 L20,2.77777778 C20,1.85888889 19.327,1.11111111 18.5,1.11111111 Z M1.5,2.22222222 L4,2.22222222 L4,3.88888889 C4,4.19555556 4.224,4.44444444 4.5,4.44444444 C4.776,4.44444444 5,4.19555556 5,3.88888889 L5,2.22222222 L15,2.22222222 L15,3.88888889 C15,4.19555556 15.224,4.44444444 15.5,4.44444444 C15.776,4.44444444 16,4.19555556 16,3.88888889 L16,2.22222222 L18.5,2.22222222 C18.776,2.22222222 19,2.47111111 19,2.77777778 L19,5.55555556 L1,5.55555556 L1,2.77777778 C1,2.47111111 1.224,2.22222222 1.5,2.22222222 Z M18.5,18.8888889 L1.5,18.8888889 C1.224,18.8888889 1,18.64 1,18.3333333 L1,6.66666667 L19,6.66666667 L19,18.3333333 C19,18.64 18.776,18.8888889 18.5,18.8888889 Z" id="Shape" fill-rule="nonzero"></path>
                    </g>
                </g>
                <g id="linearicons/0279-bookmark2-white" transform="translate(360.000000, 0.000000)">
                    <g id="0279-bookmark2">
                        <g id="20x20boundary">
                            <rect id="20x20" x="0" y="0" width="20" height="20"></rect>
                        </g>
                        <path d="M16.5,20 C16.357,20 16.217,19.938 16.12,19.825 L10.5,13.268 L4.88,19.825 C4.744,19.984 4.523,20.041 4.327,19.969 C4.131,19.897 4,19.709 4,19.5 L4,1.5 C4,1.224 4.224,1 4.5,1 L16.5,1 C16.776,1 17,1.224 17,1.5 L17,19.5 C17,19.709 16.87,19.896 16.673,19.969 C16.616,19.99 16.558,20 16.5,20 L16.5,20 Z M10.5,12 C10.646,12 10.785,12.064 10.88,12.175 L16,18.149 L16,2.001 L5,2.001 L5,18.149 L10.12,12.175 C10.215,12.064 10.354,12 10.5,12 L10.5,12 Z" id="Shape" fill="#FFFFFF" fill-rule="nonzero"></path>
                    </g>
                </g>
                <g id="linearicons/0745-clock3-white" transform="translate(480.000000, 0.000000)">
                    <g id="0745-clock3">
                        <g id="20x20boundary">
                            <rect id="20x20" x="0" y="0" width="20" height="20"></rect>
                        </g>
                        <g id="Group" transform="translate(1.000000, 1.000000)" fill-rule="nonzero" fill="#FFFFFF">
                            <path d="M16.218,2.782 C14.424,0.988 12.038,0 9.5,0 C6.962,0 4.577,0.988 2.782,2.782 C0.988,4.576 0,6.962 0,9.499 C0,12.036 0.988,14.422 2.782,16.217 C4.576,18.012 6.962,18.999 9.5,18.999 C12.038,18.999 14.423,18.011 16.218,16.217 C18.013,14.423 19,12.037 19,9.499 C19,6.961 18.012,4.576 16.218,2.782 L16.218,2.782 Z M9.5,18 C4.813,18 1,14.187 1,9.5 C1,4.813 4.813,1 9.5,1 C14.187,1 18,4.813 18,9.5 C18,14.187 14.187,18 9.5,18 Z" id="Shape"></path>
                            <path d="M15.2241712,7.25001046 C15.0861712,7.01101046 14.7801712,6.92901046 14.5411712,7.06701046 L9.6211712,9.90801046 L5.7861712,7.22301046 C5.5601712,7.06501046 5.2481712,7.12001046 5.0901712,7.34601046 C4.9321712,7.57201046 4.9871712,7.88401046 5.2131712,8.04201046 L9.3091712,10.9100105 C9.3101712,10.9110105 9.3111712,10.9110105 9.3121712,10.9120105 C9.3201712,10.9180105 9.3291712,10.9230105 9.3381712,10.9280105 C9.3401712,10.9290105 9.3431712,10.9310105 9.3451712,10.9320105 C9.3541712,10.9370105 9.3631712,10.9420105 9.3721712,10.9460105 C9.3741712,10.9470105 9.3761712,10.9480105 9.3781712,10.9490105 C9.3881712,10.9540105 9.3981712,10.9580105 9.4091712,10.9630105 C9.4151712,10.9650105 9.4211712,10.9680105 9.4281712,10.9700105 C9.4331712,10.9720105 9.4371712,10.9730105 9.4421712,10.9750105 C9.4491712,10.9770105 9.4551712,10.9790105 9.4621712,10.9810105 C9.4661712,10.9820105 9.4711712,10.9830105 9.4751712,10.9840105 C9.4821712,10.9860105 9.4891712,10.9870105 9.4951712,10.9890105 C9.5001712,10.9900105 9.5041712,10.9910105 9.5091712,10.9920105 C9.5151712,10.9930105 9.5221712,10.9940105 9.5281712,10.9950105 C9.5341712,10.9960105 9.5401712,10.9960105 9.5461712,10.9970105 C9.5511712,10.9980105 9.5571712,10.9980105 9.5621712,10.9990105 C9.5741712,11.0000105 9.5851712,11.0000105 9.5971712,11.0000105 C9.6161712,11.0000105 9.6351712,10.9990105 9.6541712,10.9970105 L9.6551712,10.9970105 C9.6731712,10.9950105 9.6921712,10.9910105 9.7101712,10.9870105 C9.7111712,10.9870105 9.7131712,10.9860105 9.7141712,10.9860105 C9.7311712,10.9820105 9.7481712,10.9770105 9.7651712,10.9700105 C9.7681712,10.9690105 9.7701712,10.9680105 9.7721712,10.9670105 C9.7881712,10.9610105 9.8041712,10.9540105 9.8191712,10.9460105 C9.8221712,10.9440105 9.8251712,10.9430105 9.8281712,10.9410105 C9.8341712,10.9380105 9.8391712,10.9350105 9.8451712,10.9320105 L15.0411712,7.93201046 C15.2801712,7.79401046 15.3621712,7.48801046 15.2241712,7.24901046 L15.2241712,7.25001046 Z" id="Shape"></path>
                        </g>
                    </g>
                </g>
                <g id="linearicons/0821-check-white" transform="translate(300.000000, 0.000000)">
                    <g id="0821-check">
                        <g id="20x20boundary">
                            <rect id="20x20" x="0" y="0" width="20" height="20"></rect>
                        </g>
                        <path d="M5.50025,17.99925 C5.37225,17.99925 5.24425,17.95025 5.14625,17.85325 L0.14625,12.85325 C-0.04875,12.65825 -0.04875,12.34125 0.14625,12.14625 C0.34125,11.95125 0.65825,11.95125 0.85325,12.14625 L5.49925,16.79225 L19.14525,3.14625 C19.34025,2.95125 19.65725,2.95125 19.85225,3.14625 C20.04725,3.34125 20.04725,3.65825 19.85225,3.85325 L5.85225,17.85325 C5.75425,17.95125 5.62625,17.99925 5.49825,17.99925 L5.50025,17.99925 Z" id="Shape" fill="#FFFFFF" fill-rule="nonzero"></path>
                    </g>
                </g>
                <g id="linearicons/0822-cross2-white" transform="translate(240.000000, 0.000000)">
                    <g id="0822-cross2">
                        <g id="20x20boundary">
                            <rect id="20x20" x="0" y="0" width="20" height="20"></rect>
                        </g>
                        <path d="M11.20625,10.49925 L19.85225,1.85325 C20.04725,1.65825 20.04725,1.34125 19.85225,1.14625 C19.65725,0.95125 19.34025,0.95125 19.14525,1.14625 L10.49925,9.79225 L1.85325,1.14625 C1.65825,0.95125 1.34125,0.95125 1.14625,1.14625 C0.95125,1.34125 0.95125,1.65825 1.14625,1.85325 L9.79225,10.49925 L1.14625,19.14525 C0.95125,19.34025 0.95125,19.65725 1.14625,19.85225 C1.24425,19.95025 1.37225,19.99825 1.50025,19.99825 C1.62825,19.99825 1.75625,19.94925 1.85425,19.85225 L10.50025,11.20625 L19.14625,19.85225 C19.24425,19.95025 19.37225,19.99825 19.50025,19.99825 C19.62825,19.99825 19.75625,19.94925 19.85425,19.85225 C20.04925,19.65725 20.04925,19.34025 19.85425,19.14525 L11.20825,10.49925 L11.20625,10.49925 Z" id="Shape" fill="#FFFFFF" fill-rule="nonzero"></path>
                    </g>
                </g>
                <g id="linearicons/0811-cross-white" transform="translate(180.000000, 60.000000)">
                    <g id="20x20boundary">
                        <rect id="20x20" x="0" y="0" width="20" height="20"></rect>
                    </g>
                    <g id="0811-cross" stroke-width="1" fill-rule="evenodd" transform="translate(3.000000, 4.000000)" fill="#FFFFFF">
                        <path d="M7.707,6.5 L13.353,0.854 C13.548,0.659 13.548,0.342 13.353,0.147 C13.158,-0.048 12.841,-0.048 12.646,0.147 L7,5.793 L1.354,0.147 C1.159,-0.048 0.842,-0.048 0.647,0.147 C0.452,0.342 0.452,0.659 0.647,0.854 L6.293,6.5 L0.647,12.146 C0.452,12.341 0.452,12.658 0.647,12.853 C0.745,12.951 0.873,12.999 1.001,12.999 C1.129,12.999 1.257,12.95 1.355,12.853 L7.001,7.207 L12.647,12.853 C12.745,12.951 12.873,12.999 13.001,12.999 C13.129,12.999 13.257,12.95 13.355,12.853 C13.55,12.658 13.55,12.341 13.355,12.146 L7.709,6.5 L7.707,6.5 Z" id="Shape" fill-rule="nonzero"></path>
                    </g>
                </g>
                <g id="linearicons/0812-menu-white" transform="translate(240.000000, 60.000000)">
                    <g id="20x20boundary">
                        <rect id="20x20" x="0" y="0" width="20" height="20"></rect>
                    </g>
                    <g id="0812-menu" stroke-width="1" fill-rule="evenodd" transform="translate(2.000000, 5.000000)" fill="#FFFFFF">
                        <g id="Group" fill-rule="nonzero">
                            <path d="M15.5,1 L0.5,1 C0.224,1 0,0.776 0,0.5 C0,0.224 0.224,0 0.5,0 L15.5,0 C15.776,0 16,0.224 16,0.5 C16,0.776 15.776,1 15.5,1 Z" id="Shape"></path>
                            <path d="M15.5,6 L0.5,6 C0.224,6 0,5.776 0,5.5 C0,5.224 0.224,5 0.5,5 L15.5,5 C15.776,5 16,5.224 16,5.5 C16,5.776 15.776,6 15.5,6 Z" id="Shape"></path>
                            <path d="M15.5,11 L0.5,11 C0.224,11 0,10.776 0,10.5 C0,10.224 0.224,10 0.5,10 L15.5,10 C15.776,10 16,10.224 16,10.5 C16,10.776 15.776,11 15.5,11 Z" id="Shape"></path>
                        </g>
                    </g>
                </g>
                <g id="linearicons/0445-lamp-white" transform="translate(420.000000, 0.000000)">
                    <g id="0445-lamp">
                        <g id="Group">
                            <g id="20x20boundary">
                                <rect id="20x20" x="0" y="0" width="20" height="20"></rect>
                            </g>
                            <path d="M10.5,20 L9.5,20 C9.224,20 9,19.776 9,19.5 C9,19.224 9.224,19 9.5,19 L10.5,19 C10.776,19 11,19.224 11,19.5 C11,19.776 10.776,20 10.5,20 Z" id="Shape" fill="#FFFFFF" fill-rule="nonzero"></path>
                            <path d="M10,0 C6.692,0 4,2.692 4,6 C4,8.114 5.014,9.828 5.057,9.9 C5.323,10.344 5.702,11.128 5.883,11.612 L6.681,13.739 C6.802,14.061 7.034,14.352 7.322,14.573 C7.121,14.828 7,15.15 7,15.5 C7,15.884 7.145,16.234 7.383,16.5 C7.145,16.766 7,17.116 7,17.5 C7,18.327 7.673,19 8.5,19 L11.5,19 C12.327,19 13,18.327 13,17.5 C13,17.116 12.855,16.766 12.617,16.5 C12.855,16.234 13,15.884 13,15.5 C13,15.15 12.879,14.828 12.678,14.573 C12.966,14.352 13.198,14.062 13.319,13.739 L14.116,11.612 C14.298,11.128 14.676,10.344 14.942,9.9 C14.985,9.828 16,8.114 16,6 C16,2.692 13.308,1.77635684e-15 10,1.77635684e-15 L10,0 Z M11.5,18 L8.5,18 C8.224,18 8,17.776 8,17.5 C8,17.224 8.224,17 8.5,17 L11.5,17 C11.776,17 12,17.224 12,17.5 C12,17.776 11.776,18 11.5,18 Z M12,15.5 C12,15.776 11.776,16 11.5,16 L8.5,16 C8.224,16 8,15.776 8,15.5 C8,15.224 8.224,15 8.5,15 L11.5,15 C11.776,15 12,15.224 12,15.5 Z M14.085,9.385 C13.788,9.879 13.382,10.721 13.18,11.261 L12.383,13.388 C12.263,13.708 11.842,14 11.5,14 L8.5,14 C8.158,14 7.737,13.708 7.617,13.388 L6.819,11.261 C6.617,10.721 6.211,9.88 5.914,9.385 C5.905,9.37 5,7.84 5,6 C5,3.243 7.243,1 10,1 C12.757,1 15,3.243 15,6 C15,7.829 14.094,9.371 14.085,9.385 Z" id="Shape" fill="#FFFFFF" fill-rule="nonzero"></path>
                        </g>
                    </g>
                </g>
                <g id="linearicons/0858-checkmark-circle-white" transform="translate(0.000000, 60.000000)">
                    <g id="0858-checkmark-circle">
                        <g id="20x20boundary">
                            <rect id="20x20" x="0" y="0" width="20" height="20"></rect>
                        </g>
                        <g id="Group" transform="translate(1.000000, 1.000000)" fill-rule="nonzero" fill="#FFFFFF">
                            <path d="M9.5,19 C6.962,19 4.577,18.012 2.782,16.218 C0.987,14.424 0,12.038 0,9.501 C0,6.963 0.988,4.578 2.782,2.783 C4.576,0.988 6.962,0 9.5,0 C12.038,0 14.423,0.988 16.218,2.783 C18.013,4.578 19,6.963 19,9.501 C19,12.039 18.012,14.424 16.218,16.218 C14.424,18.012 12.038,19 9.5,19 Z M9.5,1 C4.813,1 1,4.813 1,9.5 C1,14.187 4.813,18 9.5,18 C14.187,18 18,14.187 18,9.5 C18,4.813 14.187,1 9.5,1 Z" id="Shape"></path>
                            <path d="M7.5,13.5 C7.372,13.5 7.244,13.451 7.146,13.354 L4.146,10.354 C3.951,10.159 3.951,9.842 4.146,9.647 C4.341,9.452 4.658,9.452 4.853,9.647 L7.499,12.293 L14.145,5.647 C14.34,5.452 14.657,5.452 14.852,5.647 C15.047,5.842 15.047,6.159 14.852,6.354 L7.852,13.354 C7.754,13.452 7.626,13.5 7.498,13.5 L7.5,13.5 Z" id="Shape"></path>
                        </g>
                    </g>
                </g>
                <g id="linearicons/0859-cross-circle-WHITE" transform="translate(60.000000, 60.000000)">
                    <g id="0859-cross-circle">
                        <g id="20x20boundary">
                            <rect id="20x20" x="0" y="0" width="20" height="20"></rect>
                        </g>
                        <g id="Group" transform="translate(1.000000, 1.000000)" fill-rule="nonzero" fill="#FFFFFF">
                            <path d="M14.332,13.126 L10.252,9.5 L14.332,5.874 C14.538,5.691 14.557,5.375 14.374,5.168 C14.191,4.961 13.875,4.943 13.668,5.126 L9.5,8.831 L5.332,5.126 C5.126,4.943 4.81,4.961 4.626,5.168 C4.442,5.375 4.461,5.69 4.668,5.874 L8.748,9.5 L4.668,13.126 C4.462,13.309 4.443,13.625 4.626,13.832 C4.725,13.943 4.862,14 5,14 C5.118,14 5.237,13.958 5.332,13.874 L9.5,10.169 L13.668,13.874 C13.763,13.959 13.882,14 14,14 C14.138,14 14.275,13.943 14.374,13.832 C14.557,13.626 14.539,13.31 14.332,13.126 Z" id="Shape"></path>
                            <path d="M9.5,19 C6.962,19 4.577,18.012 2.782,16.218 C0.987,14.424 0,12.038 0,9.501 C0,6.963 0.988,4.578 2.782,2.783 C4.576,0.988 6.962,0 9.5,0 C12.038,0 14.423,0.988 16.218,2.783 C18.013,4.578 19,6.963 19,9.501 C19,12.039 18.012,14.424 16.218,16.218 C14.424,18.012 12.038,19 9.5,19 Z M9.5,1 C4.813,1 1,4.813 1,9.5 C1,14.187 4.813,18 9.5,18 C14.187,18 18,14.187 18,9.5 C18,4.813 14.187,1 9.5,1 Z" id="Shape"></path>
                        </g>
                    </g>
                </g>
                <g id="linearicons/0861-circle-minus-white" transform="translate(120.000000, 60.000000)">
                    <g id="20x20boundary">
                        <rect id="20x20" x="0" y="0" width="20" height="20"></rect>
                    </g>
                    <g id="0861-circle-minus" stroke-width="1" fill-rule="evenodd" transform="translate(1.000000, 1.000000)" fill="#FFFFFF">
                        <g id="Group" fill-rule="nonzero">
                            <path d="M16.218,2.782 C14.424,0.988 12.038,0 9.5,0 C6.962,0 4.577,0.988 2.782,2.782 C0.987,4.576 0,6.962 0,9.499 C0,12.036 0.988,14.422 2.782,16.217 C4.576,18.012 6.962,18.999 9.5,18.999 C12.038,18.999 14.423,18.011 16.218,16.217 C18.013,14.423 19,12.037 19,9.499 C19,6.961 18.012,4.576 16.218,2.782 L16.218,2.782 Z M9.5,18 C4.813,18 1,14.187 1,9.5 C1,4.813 4.813,1 9.5,1 C14.187,1 18,4.813 18,9.5 C18,14.187 14.187,18 9.5,18 Z" id="Shape"></path>
                            <path d="M15.5,10 L3.5,10 C3.224,10 3,9.776 3,9.5 C3,9.224 3.224,9 3.5,9 L15.5,9 C15.776,9 16,9.224 16,9.5 C16,9.776 15.776,10 15.5,10 Z" id="Shape"></path>
                        </g>
                    </g>
                </g>
            </g>
        </g>
    </g>
</svg>