<svg width="560" height="560" viewBox="0 0 560 560" xmlns="http://www.w3.org/2000/svg">
  <title>
    higgs-icon-quiz-sprite
  </title>
  <g fill="none" fill-rule="evenodd">
    <path fill="#839198" fill-rule="nonzero" d="M188 16.59l4.58-4.59L188 7.41 189.41 6l6 6-6 6"/>
    <path d="M180 0h24v24h-24"/>
    <path fill="#839198" fill-rule="nonzero" d="M67.41 8L72 12.58 76.59 8 78 9.41l-6 6-6-6"/>
    <path d="M60 0h24v24H60"/>
    <path fill="#839198" fill-rule="nonzero" d="M7.41 15.41L12 10.83l4.59 4.58L18 14l-6-6-6 6"/>
    <path d="M0 0h24v24H0"/>
    <path fill="#839198" fill-rule="nonzero" d="M136.41 16.59L131.83 12l4.58-4.59L135 6l-6 6 6 6"/>
    <path d="M120 0h24v24h-24M300 0h24v24h-24"/>
    <path fill="#839198" fill-rule="nonzero" d="M308.6 15.6l-4.2-4.2-1.4 1.4 5.6 5.6 12-12-1.4-1.4M377 3h-10c-1.1 0-1.99.9-1.99 2L365 21l7-3 7 3V5c0-1.1-.9-2-2-2zm0 15l-5-2.18-5 2.18V5h10v13z"/>
    <path d="M360 0h24v24h-24"/>
    <path d="M377 63h-10c-1.1 0-1.99.9-1.99 2L365 81l7-3 7 3V65c0-1.1-.9-2-2-2z" fill="#839198" fill-rule="nonzero"/>
    <path d="M360 60h24v24h-24M420 0h24v24h-24"/>
    <path d="M436.876 11.947l-.007.01c-.72.902-1.532 1.926-2.192 3.51l-.014.033-.012.033c-.047.14-.234.776-.355 1.24l-2.048-.003-2.047.003c-.12-.46-.307-1.1-.366-1.266l-.016-.04c-.658-1.583-1.473-2.61-2.197-3.52C426.717 10.807 426 9.91 426 8.29c0-3.015 2.686-5.29 6.252-5.29 3.562 0 6.248 2.275 6.248 5.29 0 1.618-.717 2.518-1.624 3.657zm-5.494 6.486h1.764c.552 0 1 .448 1 1v.7c0 .55-.448 1-1 1h-1.764c-.553 0-1-.45-1-1v-.7c0-.552.447-1 1-1z" stroke="#839198" fill="#839198" fill-rule="nonzero"/>
    <path d="M240 60h24v24h-24"/>
    <path d="M243 78h18v-2h-18v2zm0-5h18v-2h-18v2zm0-7v2h18v-2h-18z" fill="#839198" fill-rule="nonzero"/>
    <path fill="#839198" d="M199 66.41L197.59 65 192 70.59 186.41 65 185 66.41l5.59 5.59-5.59 5.59 1.41 1.41 5.59-5.59 5.59 5.59 1.41-1.41-5.59-5.59"/>
    <path d="M180 60h24v24h-24"/>
    <path fill="#839198" d="M259 6.41L257.59 5 252 10.59 246.41 5 245 6.41l5.59 5.59-5.59 5.59 1.41 1.41 5.59-5.59 5.59 5.59 1.41-1.41-5.59-5.59"/>
    <path d="M240 0h24v24h-24"/>
    <g>
      <path d="M0 60h24v24H0"/>
      <path d="M12 62C6.48 62 2 66.48 2 72s4.48 10 10 10 10-4.48 10-10-4.48-10-10-10zm-2 15l-5-5 1.41-1.41L10 74.17l7.59-7.59L19 68l-9 9z" fill="#839198"/>
    </g>
    <g>
      <path d="M72 62c-5.53 0-10 4.47-10 10s4.47 10 10 10 10-4.47 10-10-4.47-10-10-10zm5 13.59L75.59 77 72 73.41 68.41 77 67 75.59 70.59 72 67 68.41 68.41 67 72 70.59 75.59 67 77 68.41 73.41 72 77 75.59z" fill="#839198"/>
      <path d="M60 60h24v24H60"/>
    </g>
    <g>
      <path d="M132 62c-5.53 0-10 4.47-10 10s4.47 10 10 10 10-4.47 10-10-4.47-10-10-10zm6.074 10.997h-12.148v-1.994h12.148v1.994z" fill="#839198"/>
      <path d="M120 60h24v24h-24"/>
    </g>
    <g>
      <path d="M60 120h24v24H60"/>
      <path d="M72 122c-5.52 0-10 4.48-10 10s4.48 10 10 10 10-4.48 10-10-4.48-10-10-10zm0 18c-4.42 0-8-3.58-8-8s3.58-8 8-8 8 3.58 8 8-3.58 8-8 8z" fill="#839198"/>
    </g>
    <g>
      <path d="M0 120h24v24H0"/>
      <path d="M12 127c-2.76 0-5 2.24-5 5s2.24 5 5 5 5-2.24 5-5-2.24-5-5-5zm0-5c-5.52 0-10 4.48-10 10s4.48 10 10 10 10-4.48 10-10-4.48-10-10-10zm0 18c-4.42 0-8-3.58-8-8s3.58-8 8-8 8 3.58 8 8-3.58 8-8 8z" fill="#839198"/>
    </g>
    <g>
      <path d="M491.99 2C486.47 2 482 6.48 482 12s4.47 10 9.99 10c5.53 0 10.01-4.48 10.01-10s-4.48-10-10.01-10zm.01 18c-4.42 0-8-3.58-8-8s3.58-8 8-8 8 3.58 8 8-3.58 8-8 8zm.5-13H491v6l5.25 3.15.75-1.23-4.5-2.67V7z" fill="#839198"/>
      <path d="M480 0h24v24h-24"/>
    </g>
    <g>
      <path d="M480 60h24v24h-24"/>
      <path d="M502 65.72l-4.6-3.86-1.29 1.53 4.6 3.86 1.29-1.53zm-14.12-2.33l-1.28-1.53-4.6 3.85 1.29 1.53 4.59-3.85zM492 64c-4.97 0-9 4.03-9 9s4.02 9 9 9c4.97 0 9-4.03 9-9s-4.03-9-9-9zm0 16c-3.87 0-7-3.13-7-7s3.13-7 7-7 7 3.13 7 7-3.13 7-7 7zm-1.46-5.47l-2.13-2.13-1.06 1.06 3.18 3.18 6-6-1.06-1.06-4.93 4.95z" fill="#839198"/>
    </g>
    <g>
      <path d="M480 120h24v24h-24"/>
      <path d="M502 125.72l-4.6-3.86-1.29 1.53 4.6 3.86 1.29-1.53zm-14.12-2.33l-1.28-1.53-4.6 3.85 1.29 1.53 4.59-3.85zm4.12.61c-4.97 0-9 4.03-9 9s4.02 9 9 9c4.97 0 9-4.03 9-9s-4.03-9-9-9zm0 16c-3.87 0-7-3.13-7-7s3.13-7 7-7 7 3.13 7 7-3.13 7-7 7zm-1-2h2v-2h-2v2zm0-3h2v-6h-2v6z" fill="#839198"/>
    </g>
    <g>
      <path fill="#839198" d="M127 130l5 5 5-5"/>
      <path d="M120 120h24v24h-24"/>
    </g>
    <g>
      <path fill="#839198" d="M187 134l5-5 5 5"/>
      <path d="M180 120h24v24h-24"/>
    </g>
    <g>
      <path fill="#FFF" fill-rule="nonzero" d="M188 376.59l4.58-4.59-4.58-4.59 1.41-1.41 6 6-6 6"/>
      <path d="M180 360h24v24h-24"/>
      <path fill="#FFF" fill-rule="nonzero" d="M67.41 368l4.59 4.58 4.59-4.58 1.41 1.41-6 6-6-6"/>
      <path d="M60 360h24v24H60"/>
      <path fill="#FFF" fill-rule="nonzero" d="M7.41 375.41l4.59-4.58 4.59 4.58L18 374l-6-6-6 6"/>
      <path d="M0 360h24v24H0"/>
      <path fill="#FFF" fill-rule="nonzero" d="M136.41 376.59l-4.58-4.59 4.58-4.59L135 366l-6 6 6 6"/>
      <path d="M120 360h24v24h-24M300 360h24v24h-24"/>
      <path fill="#FFF" fill-rule="nonzero" d="M308.6 375.6l-4.2-4.2-1.4 1.4 5.6 5.6 12-12-1.4-1.4M377 363h-10c-1.1 0-1.99.9-1.99 2l-.01 16 7-3 7 3v-16c0-1.1-.9-2-2-2zm0 15l-5-2.18-5 2.18v-13h10v13z"/>
      <path d="M360 360h24v24h-24"/>
      <path d="M377 423h-10c-1.1 0-1.99.9-1.99 2l-.01 16 7-3 7 3v-16c0-1.1-.9-2-2-2z" fill="#FFF" fill-rule="nonzero"/>
      <path d="M360 420h24v24h-24M420 360h24v24h-24"/>
      <path d="M436.876 371.947l-.007.01c-.72.902-1.532 1.926-2.192 3.51l-.014.033-.012.033c-.047.14-.234.776-.355 1.24l-2.048-.003-2.047.003c-.12-.46-.307-1.1-.366-1.266l-.016-.04c-.658-1.583-1.473-2.61-2.197-3.52-.906-1.14-1.623-2.038-1.623-3.656 0-3.015 2.686-5.29 6.252-5.29 3.562 0 6.248 2.275 6.248 5.29 0 1.618-.717 2.518-1.624 3.657zm-5.494 6.486h1.764c.552 0 1 .448 1 1v.7c0 .55-.448 1-1 1h-1.764c-.553 0-1-.45-1-1v-.7c0-.552.447-1 1-1z" stroke="#FFF" fill="#FFF" fill-rule="nonzero"/>
      <path d="M240 420h24v24h-24"/>
      <path d="M243 438h18v-2h-18v2zm0-5h18v-2h-18v2zm0-7v2h18v-2h-18z" fill="#FFF" fill-rule="nonzero"/>
      <path fill="#FFF" d="M199 426.41l-1.41-1.41-5.59 5.59-5.59-5.59-1.41 1.41 5.59 5.59-5.59 5.59 1.41 1.41 5.59-5.59 5.59 5.59 1.41-1.41-5.59-5.59"/>
      <path d="M180 420h24v24h-24"/>
      <path fill="#FFF" d="M259 366.41l-1.41-1.41-5.59 5.59-5.59-5.59-1.41 1.41 5.59 5.59-5.59 5.59 1.41 1.41 5.59-5.59 5.59 5.59 1.41-1.41-5.59-5.59"/>
      <path d="M240 360h24v24h-24"/>
      <g>
        <path d="M0 420h24v24H0"/>
        <path d="M12 422c-5.52 0-10 4.48-10 10s4.48 10 10 10 10-4.48 10-10-4.48-10-10-10zm-2 15l-5-5 1.41-1.41 3.59 3.58 7.59-7.59L19 428l-9 9z" fill="#FFF"/>
      </g>
      <g>
        <path d="M72 422c-5.53 0-10 4.47-10 10s4.47 10 10 10 10-4.47 10-10-4.47-10-10-10zm5 13.59L75.59 437 72 433.41 68.41 437 67 435.59l3.59-3.59-3.59-3.59 1.41-1.41 3.59 3.59 3.59-3.59 1.41 1.41-3.59 3.59 3.59 3.59z" fill="#FFF"/>
        <path d="M60 420h24v24H60"/>
      </g>
      <g>
        <path d="M132 422c-5.53 0-10 4.47-10 10s4.47 10 10 10 10-4.47 10-10-4.47-10-10-10zm6.074 10.997h-12.148v-1.994h12.148v1.994z" fill="#FFF"/>
        <path d="M120 420h24v24h-24"/>
      </g>
      <g>
        <path d="M60 480h24v24H60"/>
        <path d="M72 482c-5.52 0-10 4.48-10 10s4.48 10 10 10 10-4.48 10-10-4.48-10-10-10zm0 18c-4.42 0-8-3.58-8-8s3.58-8 8-8 8 3.58 8 8-3.58 8-8 8z" fill="#FFF"/>
      </g>
      <g>
        <path d="M0 480h24v24H0"/>
        <path d="M12 487c-2.76 0-5 2.24-5 5s2.24 5 5 5 5-2.24 5-5-2.24-5-5-5zm0-5c-5.52 0-10 4.48-10 10s4.48 10 10 10 10-4.48 10-10-4.48-10-10-10zm0 18c-4.42 0-8-3.58-8-8s3.58-8 8-8 8 3.58 8 8-3.58 8-8 8z" fill="#FFF"/>
      </g>
      <g>
        <path d="M491.99 362c-5.52 0-9.99 4.48-9.99 10s4.47 10 9.99 10c5.53 0 10.01-4.48 10.01-10s-4.48-10-10.01-10zm.01 18c-4.42 0-8-3.58-8-8s3.58-8 8-8 8 3.58 8 8-3.58 8-8 8zm.5-13H491v6l5.25 3.15.75-1.23-4.5-2.67V367z" fill="#FFF"/>
        <path d="M480 360h24v24h-24"/>
      </g>
      <g>
        <path d="M480 420h24v24h-24"/>
        <path d="M502 425.72l-4.6-3.86-1.29 1.53 4.6 3.86 1.29-1.53zm-14.12-2.33l-1.28-1.53-4.6 3.85 1.29 1.53 4.59-3.85zm4.12.61c-4.97 0-9 4.03-9 9s4.02 9 9 9c4.97 0 9-4.03 9-9s-4.03-9-9-9zm0 16c-3.87 0-7-3.13-7-7s3.13-7 7-7 7 3.13 7 7-3.13 7-7 7zm-1.46-5.47l-2.13-2.13-1.06 1.06 3.18 3.18 6-6-1.06-1.06-4.93 4.95z" fill="#FFF"/>
      </g>
      <g>
        <path d="M480 480h24v24h-24"/>
        <path d="M502 485.72l-4.6-3.86-1.29 1.53 4.6 3.86 1.29-1.53zm-14.12-2.33l-1.28-1.53-4.6 3.85 1.29 1.53 4.59-3.85zm4.12.61c-4.97 0-9 4.03-9 9s4.02 9 9 9c4.97 0 9-4.03 9-9s-4.03-9-9-9zm0 16c-3.87 0-7-3.13-7-7s3.13-7 7-7 7 3.13 7 7-3.13 7-7 7zm-1-2h2v-2h-2v2zm0-3h2v-6h-2v6z" fill="#FFF"/>
      </g>
      <g>
        <path fill="#FFF" d="M127 490l5 5 5-5"/>
        <path d="M120 480h24v24h-24"/>
      </g>
      <g>
        <path fill="#FFF" d="M187 494l5-5 5 5"/>
        <path d="M180 480h24v24h-24"/>
      </g>
    </g>
  </g>
</svg>