<?xml version="1.0" encoding="UTF-8" standalone="no"?>
<svg width="127px" height="129px" viewBox="0 0 127 129" version="1.1" xmlns="http://www.w3.org/2000/svg" xmlns:xlink="http://www.w3.org/1999/xlink">
    <!-- Generator: Sketch 47.1 (45422) - http://www.bohemiancoding.com/sketch -->
    <title>rocket-done</title>
    <desc>Created with Sketch.</desc>
    <defs>
        <circle id="path-1" cx="45.0545559" cy="45.0545559" r="45.0545559"></circle>
        <linearGradient x1="7.44642857%" y1="-43.8945312%" x2="81.3727679%" y2="169.929688%" id="linearGradient-3">
            <stop stop-color="#005DE8" offset="0%"></stop>
            <stop stop-color="#E62899" offset="100%"></stop>
        </linearGradient>
        <rect id="path-4" x="4.3" y="8.81632653" width="26.4" height="26.4489796" rx="1.8"></rect>
        <path d="M33.4685964,28.4659311 L27.1760189,18.7814965 C26.9704384,18.4651029 26.6531699,18.2378078 26.2874638,18.1449246 L26.287462,18.1449315 C25.1099644,17.8458667 23.8847326,18.2813868 22.6117666,19.4514917 C21.7980169,20.199487 21.2400407,20.8411636 20.937838,21.3765214 L20.937838,21.3765214 C20.6677507,21.8549862 20.6808639,22.442827 20.9720186,22.9087718 L20.9720257,22.9087674 L25.4303254,30.0435384 L23.3195954,33.69943 C22.9053819,34.416869 23.1511946,35.3342546 23.8686335,35.7484681 L23.8686335,35.7484681 L27.9323638,38.0946639 C28.6498027,38.5088775 29.5671884,38.2630647 29.9814019,37.5456258 L33.85005,30.8449308 C33.9184024,30.7527286 33.9753291,30.6536551 34.0203527,30.5499578 L34.0348237,30.5248933 C34.4490372,29.8074544 34.2032245,28.8900688 33.4857856,28.4758552 L33.4685964,28.4659311 Z" id="path-5"></path>
        <path d="M1.24333871,28.6085995 C3.78151672,22.194253 5.93103673,18.7168713 7.69189875,18.1764545 C9.42037571,17.6459768 11.1831201,18.6676273 12.980132,21.241406 C13.3118674,21.7165356 13.3402579,22.3402477 13.0530595,22.8435503 L13.0530468,22.8435431 L8.98694221,29.9692133 L10.7645483,33.0481173 C11.1787618,33.7655562 10.9329491,34.6829418 10.2155101,35.0971554 L10.2155101,35.0971554 L6.61478761,37.1760335 C5.89734867,37.5902471 4.97996307,37.3444343 4.5657495,36.6269954 L0.990331183,30.4341892 C0.639619006,29.8267379 0.762073667,29.0759466 1.24333871,28.6085995 Z" id="path-6"></path>
        <path d="M14.1428571,-5.84894272e-13 C17.2857143,-2.23762799e-13 18.5428571,5.03790087 17.9142857,15.1137026 C17.9142857,18.2438529 15.3814966,20.7813411 12.2571429,20.7813411 L5.65714286,20.7813411 C2.53278913,20.7813411 3.82622979e-16,18.2438529 0,15.1137026 L0,6.6122449 C-3.82622979e-16,3.4820946 1.58993199,-1.60154583e-13 4.71428571,-1.60587181e-13 C7.85714286,-8.05026938e-13 11,-9.46462635e-13 14.1428571,-5.84894272e-13 Z" id="path-7"></path>
        <rect id="path-8" x="4.71428571" y="6.6122449" width="8.48571429" height="9.44606414" rx="1.8"></rect>
    </defs>
    <g id="Louise-iterations" stroke="none" stroke-width="1" fill="none" fill-rule="evenodd">
        <g id="3" transform="translate(-306.000000, -98.000000)">
            <g id="Group" transform="translate(63.000000, 65.000000)">
                <g id="rocket-done" transform="translate(243.000000, 33.000000)">
                    <g id="stars" fill="#EFEFEF">
                        <polygon id="Star" points="7.6637931 41.6363636 3.15912854 43.9961298 4.01944292 38.9980649 0.375092733 35.4584157 5.41146082 34.7292078 7.6637931 30.1818182 9.91612538 34.7292078 14.9524935 35.4584157 11.3081433 38.9980649 12.1684577 43.9961298"></polygon>
                        <polygon id="Star-Copy" points="121.685593 35.3636364 118.789737 36.8806289 119.342797 33.6675872 117 31.3920984 120.237665 30.9233219 121.685593 28 123.133521 30.9233219 126.371186 31.3920984 124.02839 33.6675872 124.581449 36.8806289"></polygon>
                        <polygon id="Star-Copy-4" points="64.7408321 9.02199558 61.1928027 10.8806289 61.8704161 6.94398037 59 4.15603041 62.9668174 3.58168114 64.7408321 0 66.5148468 3.58168114 70.4816642 4.15603041 67.6112482 6.94398037 68.2888615 10.8806289"></polygon>
                        <polygon id="Star-Copy-2" points="119.336207 121.272727 114.831542 123.632493 115.691857 118.634429 112.047507 115.094779 117.083875 114.365571 119.336207 109.818182 121.588539 114.365571 126.624907 115.094779 122.980557 118.634429 123.840871 123.632493"></polygon>
                        <polygon id="Star-Copy-3" points="20.6551724 125.818182 16.1505079 128.177948 17.0108222 123.179883 13.366472 119.640234 18.4028401 118.911026 20.6551724 114.363636 22.9075047 118.911026 27.9438728 119.640234 24.2995226 123.179883 25.159837 128.177948"></polygon>
                    </g>
                    <g id="moon" transform="translate(66.500000, 79.500000) rotate(-270.000000) translate(-66.500000, -79.500000) translate(21.000000, 34.000000)">
                        <circle id="Oval-3" stroke="#20156A" stroke-width="2" stroke-linecap="round" stroke-linejoin="round" cx="44.9518072" cy="44.9518072" r="44.9518072"></circle>
                        <g id="Oval-3-Copy-7" transform="translate(0.000000, 0.000000)">
                            <mask id="mask-2" fill="white">
                                <use xlink:href="#path-1"></use>
                            </mask>
                            <use id="Mask" fill="#FFFFFF" xlink:href="#path-1"></use>
                            <circle stroke="#20156A" stroke-width="2" stroke-linecap="round" stroke-linejoin="round" mask="url(#mask-2)" cx="84.1801854" cy="61.1801854" r="7.18018543"></circle>
                            <circle id="Oval-3-Copy-11" stroke="#20156A" stroke-width="2" stroke-linecap="round" stroke-linejoin="round" mask="url(#mask-2)" cx="2" cy="55.3603709" r="6"></circle>
                        </g>
                        <circle id="Oval-3-Copy" stroke="#20156A" stroke-width="2" stroke-linecap="round" stroke-linejoin="round" cx="45.7990142" cy="11.8110624" r="9.02026287"></circle>
                        <circle id="Oval-3-Copy-3" fill="#4086EE" cx="35.0843373" cy="63.5903614" r="7.6746988"></circle>
                        <circle id="Oval-3-Copy-6" stroke="#20156A" stroke-width="2" stroke-linecap="round" stroke-linejoin="round" cx="33.9879518" cy="65.7831325" r="7.6746988"></circle>
                        <circle id="Oval-3-Copy-4" stroke="#20156A" stroke-width="2" fill="#FFFFFF" stroke-linecap="round" stroke-linejoin="round" cx="32.3433735" cy="48.7891566" r="4.93373494"></circle>
                        <circle id="Oval-3-Copy-5" stroke="#20156A" stroke-width="2" fill="#FFFFFF" stroke-linecap="round" stroke-linejoin="round" cx="49.795215" cy="72.8193113" r="3.74702218"></circle>
                        <circle id="Oval-3-Copy-10" stroke="#20156A" stroke-width="2" fill="#FFFFFF" stroke-linecap="round" stroke-linejoin="round" cx="66.8795181" cy="51.5301205" r="3.28915663"></circle>
                        <circle id="Oval-3-Copy-8" fill="#4086EE" cx="60.3012048" cy="21.9277108" r="4.38554217"></circle>
                        <circle id="Oval-3-Copy-2" stroke="#20156A" stroke-width="2" stroke-linecap="round" stroke-linejoin="round" cx="59.753012" cy="23.5722892" r="4.93373494"></circle>
                        <circle id="Oval-3" stroke="#20156A" stroke-width="2" stroke-linecap="round" stroke-linejoin="round" cx="44.9518072" cy="44.9518072" r="44.9518072"></circle>
                    </g>
                    <g id="flag" transform="translate(43.000000, 9.000000)">
                        <path d="M3,0 L21.1,0 L21.1,1.11022302e-16 C21.5970563,1.97145461e-17 22,0.402943725 22,0.9 L22,13.1 L22,13.1 C22,13.5970563 21.5970563,14 21.1,14 L3,14 L3,0 Z" id="Rectangle-53-Copy" fill="url(#linearGradient-3)"></path>
                        <path d="M1,3 L1,16 L21,16 L21,3 L1,3 Z" id="Rectangle-53-Copy-2" stroke="#20156A" stroke-width="2"></path>
                        <path d="M1,1.59375 L1,38.4827833" id="Line-3" stroke="#20156A" stroke-width="2" stroke-linecap="round" stroke-linejoin="round"></path>
                    </g>
                    <g id="Astronaut" transform="translate(70.000000, 4.000000)">
                        <g id="Rectangle-9">
                            <use fill="#FFFFFF" fill-rule="evenodd" xlink:href="#path-4"></use>
                            <rect stroke="#20156A" stroke-width="2" x="5.3" y="9.81632653" width="24.4" height="24.4489796" rx="1.8"></rect>
                        </g>
                        <path d="M18.9142857,40.7685131 L16.0857143,40.7685131 L16.0857143,50.9553936 L16.0857143,50.9553936 C16.0857143,52.1151916 15.1455123,53.0553936 13.9857143,53.0553936 L10.6428571,53.0553936 C9.48305917,53.0553936 8.54285714,52.1151916 8.54285714,50.9553936 L8.54285714,38.9339709 C8.53189036,38.8470288 8.52623907,38.7584309 8.52623907,38.6685131 L8.52623907,34.2227299 L8.52623907,34.2227299 C8.52623907,33.6720612 8.97264429,33.225656 9.52331304,33.225656 C9.52331304,33.225656 9.52331304,33.225656 9.52331304,33.225656 C14.0101459,33.225656 20.9896637,33.225656 25.4764965,33.225656 L25.4764965,33.225656 C26.0271653,33.225656 26.4735705,33.6720612 26.4735705,34.2227299 L26.4735705,34.2227299 L26.4735705,38.6685131 C26.4735705,38.757909 26.4679846,38.8460002 26.4571429,38.9324567 L26.4571429,50.9553936 C26.4571429,52.1151916 25.5169408,53.0553936 24.3571429,53.0553936 L21.0142857,53.0553936 C19.8544877,53.0553936 18.9142857,52.1151916 18.9142857,50.9553936 L18.9142857,40.7685131 Z" id="Combined-Shape" stroke="#20156A" stroke-width="2" fill="#FFFFFF"></path>
                        <ellipse id="Oval-16-Copy" stroke="#20156A" fill="#FFFFFF" cx="25.9857143" cy="37.4693878" rx="2.35714286" ry="2.36151603"></ellipse>
                        <g id="Combined-Shape">
                            <use fill="#FFFFFF" fill-rule="evenodd" xlink:href="#path-5"></use>
                            <path stroke="#20156A" stroke-width="2" d="M32.9857856,29.3418806 L32.7607962,29.211983 L26.3374841,19.3263445 C26.2689579,19.220881 26.1632062,19.1451199 26.0412945,19.1141588 C25.2306689,18.9082734 24.3334643,19.2271932 23.2885024,20.1877177 C22.5451298,20.8710226 22.0502511,21.4401367 21.808673,21.8680967 C21.7186439,22.0275851 21.7230155,22.2235277 21.8200738,22.3788481 L26.5967812,30.0231778 L24.1856208,34.19943 C24.0475497,34.4385763 24.1294872,34.7443715 24.3686335,34.8824427 L28.4323638,37.2286385 C28.6715101,37.3667097 28.9773053,37.2847721 29.1153765,37.0456258 L32.9840245,30.3449308 L33.04672,30.2493966 C33.0691004,30.2192072 33.0879952,30.186441 33.1030818,30.151694 L33.1543273,30.0499578 L33.1687983,30.0248933 C33.3068695,29.785747 33.2249319,29.4799518 32.9857856,29.3418806 Z"></path>
                        </g>
                        <ellipse id="Oval-16" stroke="#20156A" fill="#FFFFFF" cx="8.07142857" cy="36.5247813" rx="2.35714286" ry="2.36151603"></ellipse>
                        <g id="Combined-Shape">
                            <use fill="#FFFFFF" fill-rule="evenodd" xlink:href="#path-6"></use>
                            <path stroke="#20156A" stroke-width="2" d="M2.17318669,28.9765435 L2.09413267,29.1763245 L1.9399959,29.3260037 C1.77785661,29.483454 1.74122974,29.7347836 1.85635659,29.9341892 L5.43177491,36.1269954 C5.56984609,36.3661417 5.8756413,36.4480793 6.11478761,36.3100081 L9.71551015,34.23113 C9.95465646,34.0930588 10.036594,33.7872636 9.89852285,33.5481173 L7.83392417,29.9721274 L12.1845169,22.3479358 C12.2802515,22.180165 12.2707878,21.972257 12.1602072,21.8138774 C10.5834455,19.5555529 9.20666732,18.7576005 7.98529668,19.1324449 C6.64761189,19.5429866 4.58694205,22.8766311 2.17318669,28.9765435 Z"></path>
                        </g>
                        <path d="M11.3714286,53.0503912 C13.4543311,53.0503912 15.1428571,53.2477709 15.1428571,51.1628459 C15.1428571,49.0779208 13.4543311,47.3877551 11.3714286,47.3877551 C9.28852609,47.3877551 7.6,49.0779208 7.6,51.1628459 C7.6,53.2477709 9.28852609,53.0503912 11.3714286,53.0503912 Z" id="Oval-15" stroke="#20156A" stroke-width="2" fill="#FFFFFF"></path>
                        <path d="M21.7428571,53.0503912 C23.8257596,53.0503912 25.5142857,53.2477709 25.5142857,51.1628459 C25.5142857,49.0779208 23.8257596,47.3877551 21.7428571,47.3877551 C19.6599547,47.3877551 17.9714286,49.0779208 17.9714286,51.1628459 C17.9714286,53.2477709 19.6599547,53.0503912 21.7428571,53.0503912 Z" id="Oval-15-Copy" stroke="#20156A" stroke-width="2" fill="#FFFFFF"></path>
                        <g id="Body" transform="translate(8.542857, 16.215743)">
                            <g id="Rectangle-31">
                                <use fill="#FFFFFF" fill-rule="evenodd" xlink:href="#path-7"></use>
                                <path stroke="#20156A" stroke-width="2" d="M14.1428571,1 L4.71428571,1 C2.55901539,1 1,3.4963019 1,6.6122449 L1,15.1137026 C1,17.6919827 3.08548924,19.7813411 5.65714286,19.7813411 L12.2571429,19.7813411 C14.8287965,19.7813411 16.9142857,17.6919827 16.916226,15.0514394 C17.5075268,5.57307321 16.3663757,1 14.1428571,1 Z"></path>
                            </g>
                            <g id="Rectangle-33">
                                <use fill="#E2238E" fill-rule="evenodd" xlink:href="#path-8"></use>
                                <rect stroke="#20156A" stroke-width="1" x="5.21428571" y="7.1122449" width="7.48571429" height="8.44606414" rx="1.8"></rect>
                            </g>
                        </g>
                        <g id="Head" transform="translate(7.600000, 0.000000)" stroke="#20156A" fill="#FFFFFF">
                            <ellipse id="Oval-4" stroke-width="2" cx="9.9" cy="9.91836735" rx="9.9" ry="9.91836735"></ellipse>
                            <ellipse id="Oval-4" cx="9.9" cy="9.91836735" rx="5.5" ry="5.51020408"></ellipse>
                        </g>
                    </g>
                </g>
            </g>
        </g>
    </g>
</svg>